Muli-100-Thin.ufo
<glyph name="exclam" format="1">
  <advance width="371.1125"/>
  <unicode hex="0021"/>
  <outline>
    <contour>
      <point x="127.45625" y="0.0" type="line"/>
      <point x="245.5" y="0.0" type="line"/>
      <point x="245.5" y="131.155" type="line"/>
      <point x="127.45625" y="131.155" type="line"/>
    </contour>
    <contour>
      <point x="174.70625" y="357.115" type="line"/>
      <point x="203.8" y="357.115" type="line"/>
      <point x="224.31875" y="1456.0" type="line"/>
      <point x="154.1875" y="1456.0" type="line"/>
    </contour>
  </outline>
</glyph>
<glyph name="quotedbl" format="1">
  <advance width="970.25"/>
  <unicode hex="0022"/>
  <outline>
    <contour>
      <point x="329.2" y="971.9425" type="line"/>
      <point x="305.5" y="1456.0" type="line"/>
      <point x="414.35625" y="1456.0" type="line"/>
      <point x="421.95625" y="971.9425" type="line"/>
    </contour>
    <contour>
      <point x="571.35625" y="971.9425" type="line"/>
      <point x="547.65625" y="1456.0" type="line"/>
      <point x="656.5125" y="1456.0" type="line"/>
      <point x="663.54375" y="971.9425" type="line"/>
    </contour>
  </outline>
</glyph>
<glyph name="numbersign" format="1">
  <advance width="1445.04375"/>
  <unicode hex="0023"/>
  <outline>
    <contour>
      <point x="351.8375" y="139.96125" type="line"/>
      <point x="428.325" y="526.39375" type="line"/>
      <point x="157.475" y="526.39375" type="line"/>
      <point x="169.75" y="614.97125" type="line"/>
      <point x="443.5375" y="614.97125" type="line"/>
      <point x="483.35" y="832.1525"/>
      <point x="448.33125" y="687.53"/>
      <point x="490.41875" y="904.71125" type="curve"/>
      <point x="236.93125" y="904.71125" type="line"/>
      <point x="254.325" y="988.4625" type="line"/>
      <point x="499.2375" y="988.4625" type="line"/>
      <point x="571.29375" y="1371.80875" type="line"/>
      <point x="665.275" y="1371.80875" type="line"/>
      <point x="598.90625" y="988.4625" type="line"/>
      <point x="950.9" y="988.4625" type="line"/>
      <point x="1015.5625" y="1371.80875" type="line"/>
      <point x="1109.54375" y="1371.80875" type="line"/>
      <point x="1040.9" y="988.4625" type="line"/>
      <point x="1306.41875" y="988.4625" type="line"/>
      <point x="1283.63125" y="904.71125" type="line"/>
      <point x="1029.2375" y="904.71125" type="line"/>
      <point x="980.08125" y="614.97125" type="line"/>
      <point x="1232.08125" y="614.97125" type="line"/>
      <point x="1209.29375" y="526.39375" type="line"/>
      <point x="969.9875" y="526.39375" type="line"/>
      <point x="895.775" y="139.96125" type="line"/>
      <point x="803.5" y="139.96125" type="line"/>
      <point x="870.31875" y="526.39375" type="line"/>
      <point x="517.75625" y="526.39375" type="line"/>
      <point x="446.3875" y="139.96125" type="line"/>
    </contour>
    <contour>
      <point x="528.41875" y="614.97125" type="line"/>
      <point x="887.80625" y="614.97125" type="line"/>
      <point x="937.53125" y="904.71125" type="line"/>
      <point x="584.96875" y="904.71125" type="line"/>
    </contour>
  </outline>
</glyph>
<glyph name="dollar" format="1">
  <advance width="1116.25"/>
  <unicode hex="0024"/>
  <outline>
    <contour>
      <point x="536.79375" y="-161.375" type="line"/>
      <point x="536.79375" y="1645.76875" type="line"/>
      <point x="699.90625" y="1645.76875" type="line"/>
      <point x="699.90625" y="-161.375" type="line"/>
    </contour>
    <component base="S"/>
  </outline>
</glyph>
<glyph name="percent" format="1">
  <advance width="1511.5"/>
  <unicode hex="0025"/>
  <outline>
    <contour>
      <point x="378.5" y="845.9" type="curve" smooth="yes"/>
      <point x="568.0" y="845.9"/>
      <point x="603.5" y="1022.5"/>
      <point x="603.5" y="1143.2" type="curve" smooth="yes"/>
      <point x="603.5" y="1286.9"/>
      <point x="557.5" y="1428.3"/>
      <point x="382.0" y="1428.3" type="curve" smooth="yes"/>
      <point x="196.0" y="1428.3"/>
      <point x="150.0" y="1263.8"/>
      <point x="150.0" y="1133.3" type="curve" smooth="yes"/>
      <point x="150.0" y="999.4"/>
      <point x="189.0" y="845.9"/>
    </contour>
    <contour>
      <point x="371.5" y="775.1" type="curve" smooth="yes"/>
      <point x="151.0" y="775.1"/>
      <point x="78.5" y="953.4"/>
      <point x="78.5" y="1130.0" type="curve" smooth="yes"/>
      <point x="78.5" y="1306.2"/>
      <point x="171.0" y="1495.8"/>
      <point x="385.5" y="1495.8" type="curve" smooth="yes"/>
      <point x="610.5" y="1495.8"/>
      <point x="675.0" y="1326.0"/>
      <point x="675.0" y="1139.9" type="curve" smooth="yes"/>
      <point x="675.0" y="969.9"/>
      <point x="585.0" y="775.1"/>
    </contour>
    <contour>
      <point x="281.0" y="0.0" type="line"/>
      <point x="1177.5" y="1456.0" type="line"/>
      <point x="1257.0" y="1456.0" type="line"/>
      <point x="363.0" y="0.0" type="line"/>
    </contour>
    <contour>
      <point x="1136.5" y="36.6" type="curve" smooth="yes"/>
      <point x="1326.0" y="36.6"/>
      <point x="1365.0" y="213.2"/>
      <point x="1365.0" y="333.9" type="curve" smooth="yes"/>
      <point x="1365.0" y="477.6"/>
      <point x="1322.5" y="619.0"/>
      <point x="1143.5" y="619.0" type="curve" smooth="yes"/>
      <point x="954.0" y="619.0"/>
      <point x="911.5" y="451.2"/>
      <point x="911.5" y="320.7" type="curve" smooth="yes"/>
      <point x="911.5" y="190.1"/>
      <point x="947.0" y="36.6"/>
    </contour>
    <contour>
      <point x="1129.5" y="-34.2" type="curve" smooth="yes"/>
      <point x="912.5" y="-34.2"/>
      <point x="840.0" y="127.8"/>
      <point x="840.0" y="324.0" type="curve" smooth="yes"/>
      <point x="840.0" y="523.1"/>
      <point x="929.0" y="689.8"/>
      <point x="1143.5" y="689.8" type="curve" smooth="yes"/>
      <point x="1368.5" y="689.8"/>
      <point x="1433.0" y="539.6"/>
      <point x="1433.0" y="333.9" type="curve" smooth="yes"/>
      <point x="1433.0" y="137.7"/>
      <point x="1343.0" y="-34.2"/>
    </contour>
  </outline>
</glyph>
<glyph name="quotesingle" format="1">
  <advance width="561.23125"/>
  <unicode hex="0027"/>
  <outline>
    <contour>
      <point x="260.175" y="1025.25" type="line"/>
      <point x="218.9" y="1456.0" type="line"/>
      <point x="303.94375" y="1456.0" type="line"/>
      <point x="293.4" y="1025.25" type="line"/>
    </contour>
  </outline>
</glyph>
<glyph name="parenright" format="1">
  <advance width="528.28125"/>
  <unicode hex="0029"/>
  <outline>
    <contour>
      <point x="102.375" y="1496.0" type="line"/>
      <point x="249.8625" y="1266.9425"/>
      <point x="350.40625" y="987.5375"/>
      <point x="350.40625" y="660.0" type="curve" smooth="yes"/>
      <point x="350.40625" y="322.28875"/>
      <point x="266.1375" y="67.17375"/>
      <point x="97.8625" y="-197.97125" type="curve"/>
      <point x="45.88125" y="-197.97125" type="line"/>
      <point x="205.36875" y="62.9125"/>
      <point x="294.7" y="320.40375"/>
      <point x="294.7" y="650.2025" type="curve" smooth="yes"/>
      <point x="294.7" y="955.71125"/>
      <point x="204.88125" y="1254.0875"/>
      <point x="43.60625" y="1496.0" type="curve"/>
    </contour>
  </outline>
</glyph>
<glyph name="plus" format="1">
  <advance width="1072.43125"/>
  <unicode hex="002B"/>
  <outline>
    <contour>
      <point x="510.88125" y="151.7125" type="line"/>
      <point x="510.88125" y="609.845" type="line"/>
      <point x="116.09375" y="609.845" type="line"/>
      <point x="116.09375" y="671.17375" type="line"/>
      <point x="508.33125" y="671.17375" type="line"/>
      <point x="508.33125" y="1083.7975" type="line"/>
      <point x="557.1375" y="1083.7975" type="line"/>
      <point x="557.1375" y="671.17375" type="line"/>
      <point x="955.76875" y="671.17375" type="line"/>
      <point x="955.76875" y="609.845" type="line"/>
      <point x="561.25625" y="609.845" type="line"/>
      <point x="561.25625" y="151.7125" type="line"/>
    </contour>
  </outline>
</glyph>
<glyph name="zero" format="1">
  <advance width="1150.25"/>
  <unicode hex="0030"/>
  <outline>
    <contour>
      <point x="587.51875" y="44.03875" type="curve" smooth="yes"/>
      <point x="859.575" y="44.03875"/>
      <point x="939.20625" y="341.31625"/>
      <point x="939.20625" y="717.08625" type="curve" smooth="yes"/>
      <point x="939.20625" y="1164.9325"/>
      <point x="853.18125" y="1411.135"/>
      <point x="585.24375" y="1411.135" type="curve" smooth="yes"/>
      <point x="314.85625" y="1411.135"/>
      <point x="196.25625" y="1163.7875"/>
      <point x="196.25625" y="719.23125" type="curve" smooth="yes"/>
      <point x="196.25625" y="343.46125"/>
      <point x="317.13125" y="44.03875"/>
    </contour>
    <contour>
      <point x="585.79375" y="-23.0" type="curve" smooth="yes"/>
      <point x="258.06875" y="-23.0"/>
      <point x="124.0" y="296.7975"/>
      <point x="124.0" y="718.08625" type="curve" smooth="yes"/>
      <point x="124.0" y="1184.08625"/>
      <point x="261.1875" y="1483.0"/>
      <point x="587.79375" y="1483.0" type="curve" smooth="yes"/>
      <point x="915.675" y="1483.0"/>
      <point x="1026.25" y="1200.6525"/>
      <point x="1026.25" y="715.94125" type="curve" smooth="yes"/>
      <point x="1026.25" y="289.68125"/>
      <point x="914.4" y="-23.0"/>
    </contour>
  </outline>
</glyph>
<glyph name="two" format="1">
  <advance width="1159.0"/>
  <unicode hex="0032"/>
  <outline>
    <contour>
      <point x="598" y="1481" type="curve" smooth="yes"/>
      <point x="877" y="1481"/>
      <point x="1029" y="1318"/>
      <point x="1022" y="1147" type="curve" smooth="yes"/>
      <point x="1015" y="968"/>
      <point x="950" y="855"/>
      <point x="721" y="581" type="curve" smooth="yes"/>
      <point x="302" y="66" type="line"/>
      <point x="1016" y="66" type="line"/>
      <point x="1016.0" y="0.0" type="line"/>
      <point x="213" y="0" type="line"/>
      <point x="213" y="72" type="line"/>
      <point x="655" y="612" type="line" smooth="yes"/>
      <point x="873" y="890"/>
      <point x="938" y="970"/>
      <point x="948" y="1143" type="curve" smooth="yes"/>
      <point x="954" y="1245"/>
      <point x="878" y="1417"/>
      <point x="599" y="1417" type="curve" smooth="yes"/>
      <point x="398" y="1417"/>
      <point x="258" y="1275"/>
      <point x="258" y="1275" type="curve"/>
      <point x="217" y="1326" type="line"/>
      <point x="217" y="1326"/>
      <point x="356" y="1481"/>
    </contour>
  </outline>
</glyph>
<glyph name="three" format="1">
  <advance width="1150.25"/>
  <unicode hex="0033"/>
  <outline>
    <contour>
      <point x="492.85625" y="-23.0" type="curve" smooth="yes"/>
      <point x="426.2375" y="-23.0"/>
      <point x="248.05625" y="18.78"/>
      <point x="203.69375" y="44.52" type="curve"/>
      <point x="207.30625" y="122.95125" type="line"/>
      <point x="360.86875" y="45.73125"/>
      <point x="437.96875" y="44.03875"/>
      <point x="547.425" y="44.03875" type="curve" smooth="yes"/>
      <point x="740.09375" y="44.03875"/>
      <point x="939.78125" y="165.605"/>
      <point x="939.78125" y="381.3175" type="curve" smooth="yes"/>
      <point x="939.78125" y="632.8275"/>
      <point x="800.6875" y="735.39375"/>
      <point x="555.56875" y="743.33625" type="curve" smooth="yes"/>
      <point x="468.3875" y="746.1625" type="line"/>
      <point x="466.3875" y="808.52" type="line"/>
      <point x="514.20625" y="808.52" type="line" smooth="yes"/>
      <point x="700.9375" y="808.52"/>
      <point x="916.84375" y="874.63625"/>
      <point x="916.84375" y="1122.05875" type="curve" smooth="yes"/>
      <point x="916.84375" y="1321.42375"/>
      <point x="748.875" y="1422.9325"/>
      <point x="544.81875" y="1422.9325" type="curve" smooth="yes"/>
      <point x="383.9375" y="1422.9325"/>
      <point x="246.28125" y="1364.70125"/>
      <point x="142.525" y="1240.53875" type="curve"/>
      <point x="103.9125" y="1265.60625" type="line"/>
      <point x="145.06875" y="1414.08625"/>
      <point x="395.7875" y="1483.0"/>
      <point x="544.4" y="1483.0" type="curve" smooth="yes"/>
      <point x="751.825" y="1483.0"/>
      <point x="969.3125" y="1345.0575"/>
      <point x="969.3125" y="1122.76875" type="curve" smooth="yes"/>
      <point x="969.3125" y="904.20125"/>
      <point x="855.4625" y="838.8275"/>
      <point x="723.3375" y="767.145" type="curve"/>
      <point x="901.275" y="722.02875"/>
      <point x="1010.70625" y="610.74"/>
      <point x="1010.70625" y="387.94125" type="curve" smooth="yes"/>
      <point x="1010.70625" y="138.0"/>
      <point x="803.3375" y="-23.0"/>
    </contour>
  </outline>
</glyph>
<glyph name="four" format="1">
  <advance width="1150.25"/>
  <unicode hex="0034"/>
  <outline>
    <contour>
      <point x="774.79375" y="0.0" type="line"/>
      <point x="774.79375" y="393.7975" type="line"/>
      <point x="99.60625" y="393.7975" type="line"/>
      <point x="99.60625" y="503.4475" type="line"/>
      <point x="675.23125" y="1456.0" type="line"/>
      <point x="853.54375" y="1456.0" type="line"/>
      <point x="853.54375" y="461.8225" type="line"/>
      <point x="1047.55625" y="461.8225" type="line"/>
      <point x="1047.55625" y="393.7975" type="line"/>
      <point x="847.30625" y="393.7975" type="line"/>
      <point x="847.30625" y="0.0" type="line"/>
    </contour>
    <contour>
      <point x="151.4625" y="461.8225" type="line"/>
      <point x="770.4" y="461.8225" type="line"/>
      <point x="770.4" y="1435.80625" type="line"/>
      <point x="588.90625" y="1156.685" type="line"/>
    </contour>
  </outline>
</glyph>
<glyph name="seven" format="1">
  <advance width="1150.25"/>
  <unicode hex="0037"/>
  <outline>
    <contour>
      <point x="413.56875" y="0.0" type="line"/>
      <point x="961.9625" y="1383.01875" type="line"/>
      <point x="202.75625" y="1383.01875" type="line"/>
      <point x="202.75625" y="1456.0" type="line"/>
      <point x="1025.975" y="1456.0" type="line"/>
      <point x="1025.975" y="1404.99" type="line"/>
      <point x="491.70625" y="0.0" type="line"/>
    </contour>
  </outline>
</glyph>
<glyph name="eight" format="1">
  <advance width="1150.54375"/>
  <unicode hex="0038"/>
  <outline>
    <contour>
      <point x="569.740625" y="-23.0" type="curve" smooth="yes"/>
      <point x="363.403125" y="-23.0"/>
      <point x="125.496875" y="108.23125"/>
      <point x="125.496875" y="352.3175" type="curve" smooth="yes"/>
      <point x="125.496875" y="562.82625"/>
      <point x="246.678125" y="711.91375"/>
      <point x="499.521875" y="761.855" type="curve"/>
      <point x="274.953125" y="801.28875"/>
      <point x="165.165625" y="940.855"/>
      <point x="165.165625" y="1131.56625" type="curve" smooth="yes"/>
      <point x="165.165625" y="1351.6525"/>
      <point x="359.890625" y="1483.0"/>
      <point x="578.528125" y="1483.0" type="curve" smooth="yes"/>
      <point x="768.684375" y="1483.0"/>
      <point x="988.928125" y="1359.595"/>
      <point x="988.928125" y="1143.48" type="curve" smooth="yes"/>
      <point x="988.928125" y="953.91375"/>
      <point x="870.353125" y="814.88375"/>
      <point x="650.178125" y="765.82625" type="curve"/>
      <point x="922.440625" y="709.62375"/>
      <point x="1025.046875" y="577.56625"/>
      <point x="1025.046875" y="361.94125" type="curve" smooth="yes"/>
      <point x="1025.046875" y="116.71"/>
      <point x="813.228125" y="-23.0"/>
    </contour>
    <contour>
      <point x="574.134375" y="39.2125" type="curve" smooth="yes"/>
      <point x="797.640625" y="39.2125"/>
      <point x="960.065625" y="164.51875"/>
      <point x="960.065625" y="365.3175" type="curve" smooth="yes"/>
      <point x="960.065625" y="585.45125"/>
      <point x="808.978125" y="661.91375"/>
      <point x="566.621875" y="702.885" type="curve"/>
      <point x="342.565625" y="659.0875"/>
      <point x="187.359375" y="569.03"/>
      <point x="187.359375" y="369.28875" type="curve" smooth="yes"/>
      <point x="187.359375" y="153.75"/>
      <point x="357.590625" y="39.2125"/>
    </contour>
    <contour>
      <point x="575.409375" y="813.1725" type="curve"/>
      <point x="812.646875" y="844.20125"/>
      <point x="936.459375" y="940.99875"/>
      <point x="936.459375" y="1119.76875" type="curve" smooth="yes"/>
      <point x="936.459375" y="1327.22125"/>
      <point x="767.071875" y="1434.73"/>
      <point x="576.684375" y="1434.73" type="curve" smooth="yes"/>
      <point x="400.203125" y="1434.73"/>
      <point x="220.753125" y="1321.56875"/>
      <point x="220.753125" y="1132.8275" type="curve" smooth="yes"/>
      <point x="220.753125" y="943.28875"/>
      <point x="344.565625" y="848.1725"/>
    </contour>
  </outline>
</glyph>
<glyph name="colon" format="1">
  <advance width="442.79375"/>
  <unicode hex="003A"/>
  <outline>
    <contour>
      <point x="165.90625" y="12.595" type="line"/>
      <point x="165.90625" y="153.4025" type="line"/>
      <point x="276.8875" y="153.4025" type="line"/>
      <point x="276.8875" y="12.595" type="line"/>
    </contour>
    <contour>
      <point x="165.90625" y="850.57875" type="line"/>
      <point x="165.90625" y="990.85" type="line"/>
      <point x="278.1625" y="990.85" type="line"/>
      <point x="276.8875" y="850.57875" type="line"/>
    </contour>
  </outline>
</glyph>
<glyph name="semicolon" format="1">
  <advance width="552.5125"/>
  <unicode hex="003B"/>
  <outline>
    <contour>
      <point x="143.09375" y="-260.91375" type="line"/>
      <point x="244.8375" y="137.8075" type="line"/>
      <point x="317.325" y="137.8075" type="line"/>
      <point x="173.74375" y="-260.91375" type="line"/>
    </contour>
    <contour>
      <point x="130.79375" y="820.54875" type="line"/>
      <point x="130.79375" y="961.35625" type="line"/>
      <point x="303.85625" y="961.35625" type="line"/>
      <point x="303.85625" y="820.54875" type="line"/>
    </contour>
  </outline>
</glyph>
<glyph name="less" format="1">
  <advance width="937.39375"/>
  <unicode hex="003C"/>
  <outline>
    <contour>
      <point x="716.55" y="126.19125" type="line"/>
      <point x="16.0125" y="579.4225" type="line"/>
      <point x="16.0125" y="638.9425" type="line"/>
      <point x="723.39375" y="992.77875" type="line"/>
      <point x="723.39375" y="922.71125" type="line"/>
      <point x="56.425" y="596.74" type="line"/>
      <point x="716.55" y="196.54875" type="line"/>
    </contour>
  </outline>
</glyph>
<glyph name="greater" format="1">
  <advance width="934.275"/>
  <unicode hex="003E"/>
  <outline>
    <contour>
      <point x="214.0" y="122.22" type="line"/>
      <point x="214.0" y="186.635" type="line"/>
      <point x="873.125" y="533.4625" type="line"/>
      <point x="219.0" y="916.76875" type="line"/>
      <point x="219.0" y="983.155" type="line"/>
      <point x="917.69375" y="559.40375" type="line"/>
      <point x="917.69375" y="510.11625" type="line"/>
    </contour>
  </outline>
</glyph>
<glyph name="A" format="1">
  <advance width="1289.0"/>
  <unicode hex="0041"/>
  <outline>
    <contour>
      <point x="52.0" y="0.0" type="line"/>
      <point x="128.0" y="0.0" type="line"/>
      <point x="286.5" y="416.8" type="line"/>
      <point x="1010.0" y="416.8" type="line"/>
      <point x="1168.0" y="0.0" type="line"/>
      <point x="1237.0" y="0.0" type="line"/>
      <point x="682.5" y="1456" type="line"/>
      <point x="605.5" y="1456" type="line"/>
    </contour>
    <contour>
      <point x="304.5" y="469" type="line"/>
      <point x="572.259877443" y="1183.28884953" type="line"/>
      <point x="644.5" y="1376" type="line"/>
      <point x="719.1684044" y="1180.8292715" type="line"/>
      <point x="991.5" y="469" type="line"/>
    </contour>
  </outline>
</glyph>
<glyph name="F" format="1">
  <advance width="1048.64375"/>
  <unicode hex="0046"/>
  <outline>
    <contour>
      <point x="208.0" y="0.0" type="line"/>
      <point x="208.0" y="1456.0" type="line"/>
      <point x="953.34375" y="1456.0" type="line"/>
      <point x="953.34375" y="1386.81625" type="line"/>
      <point x="277.1" y="1386.81625" type="line"/>
      <point x="277.1" y="760.88125" type="line"/>
      <point x="890.31875" y="760.88125" type="line"/>
      <point x="890.31875" y="692.8425" type="line"/>
      <point x="277.1" y="692.8425" type="line"/>
      <point x="277.1" y="0.0" type="line"/>
    </contour>
  </outline>
</glyph>
<glyph name="G" format="1">
  <advance width="1505.30625"/>
  <unicode hex="0047"/>
  <outline>
    <contour>
      <point x="827" y="-22" type="curve" smooth="yes"/>
      <point x="359" y="-22"/>
      <point x="110.0" y="267.0"/>
      <point x="110.0" y="697.02875" type="curve" smooth="yes"/>
      <point x="110.0" y="1250.1925"/>
      <point x="558" y="1481"/>
      <point x="821" y="1481" type="curve" smooth="yes"/>
      <point x="819" y="1481"/>
      <point x="1028.35625" y="1521.01875"/>
      <point x="1292.6125" y="1333.17375" type="curve"/>
      <point x="1262.15625" y="1282.22125" type="line"/>
      <point x="1038.4375" y="1427.52875"/>
      <point x="879" y="1417"/>
      <point x="835" y="1417" type="curve" smooth="yes"/>
      <point x="583" y="1417"/>
      <point x="178.8625" y="1239.95"/>
      <point x="178.8625" y="712.855" type="curve" smooth="yes"/>
      <point x="178.8625" y="313.37375"/>
      <point x="360" y="42"/>
      <point x="825" y="42" type="curve" smooth="yes"/>
      <point x="978" y="42"/>
      <point x="1157.18125" y="69.3"/>
      <point x="1272.6" y="125.86625" type="curve"/>
      <point x="1272.6" y="648.5675" type="line"/>
      <point x="858.78125" y="648.5675" type="line"/>
      <point x="858.78125" y="715.60625" type="line"/>
      <point x="1337.30625" y="715.60625" type="line"/>
      <point x="1337.30625" y="77.88375" type="line"/>
      <point x="1204.5125" y="10.82625"/>
      <point x="1002" y="-22"/>
    </contour>
  </outline>
</glyph>
<glyph name="H" format="1">
  <advance width="1503.88125"/>
  <unicode hex="0048"/>
  <outline>
    <contour>
      <point x="208.0" y="0.0" type="line"/>
      <point x="208.025" y="1456" type="line"/>
      <point x="278.025" y="1456" type="line"/>
      <point x="278.025" y="776" type="line"/>
      <point x="1226.025" y="776" type="line"/>
      <point x="1226.025" y="1456" type="line"/>
      <point x="1295.88125" y="1456.0" type="line"/>
      <point x="1295.88125" y="0.0" type="line"/>
      <point x="1225.025" y="0" type="line"/>
      <point x="1225.025" y="715" type="line"/>
      <point x="278.025" y="715" type="line"/>
      <point x="278.025" y="0" type="line"/>
    </contour>
  </outline>
</glyph>
<glyph name="J" format="1">
  <advance width="83.9875"/>
  <unicode hex="004A"/>
  <outline>
    <contour>
      <point x="-285.04375" y="-328.855" type="curve" smooth="yes"/>
      <point x="-433.19375" y="-328.855"/>
      <point x="-525.25" y="-271.3175"/>
      <point x="-384.45" y="-314.50875" type="curve"/>
      <point x="-394.20625" y="-231.9325" type="line"/>
      <point x="-509.8" y="-200.33625"/>
      <point x="-427.13125" y="-255.16375"/>
      <point x="-267.89375" y="-255.16375" type="curve" smooth="yes"/>
      <point x="-152.5875" y="-255.16375"/>
      <point x="-171.7" y="-147.07625"/>
      <point x="-171.7" y="139.885" type="curve" smooth="yes"/>
      <point x="-171.7" y="1456.0" type="line"/>
      <point x="-102.6" y="1456.0" type="line"/>
      <point x="-102.6" y="107.0575" type="line" smooth="yes"/>
      <point x="-102.6" y="-197.05875"/>
      <point x="-133.00625" y="-328.855"/>
    </contour>
  </outline>
</glyph>
<glyph name="L" format="1">
  <advance width="960.0125"/>
  <unicode hex="004C"/>
  <outline>
    <contour>
      <point x="208.0" y="0.0" type="line"/>
      <point x="208.0" y="1456.0" type="line"/>
      <point x="277.1" y="1456.0" type="line"/>
      <point x="277.1" y="69.18375" type="line"/>
      <point x="957.925" y="69.18375" type="line"/>
      <point x="957.925" y="0.0" type="line"/>
    </contour>
  </outline>
</glyph>
<glyph name="M" format="1">
  <advance width="1763.14375"/>
  <unicode hex="004D"/>
  <outline>
    <contour>
      <point x="208.0" y="0.0" type="line"/>
      <point x="208.0" y="1456.0" type="line"/>
      <point x="284" y="1456" type="line"/>
      <point x="896" y="44" type="line"/>
      <point x="896" y="44"/>
      <point x="856" y="44"/>
      <point x="856" y="44" type="curve"/>
      <point x="1485" y="1456" type="line"/>
      <point x="1555.14375" y="1456.0" type="line"/>
      <point x="1555.14375" y="0.0" type="line"/>
      <point x="1493" y="0" type="line"/>
      <point x="1493" y="1390" type="line"/>
      <point x="1515" y="1375" type="line"/>
      <point x="900.625" y="0.0" type="line"/>
      <point x="851.73125" y="0.0" type="line"/>
      <point x="253" y="1382" type="line"/>
      <point x="270" y="1395" type="line"/>
      <point x="270" y="0" type="line"/>
    </contour>
  </outline>
</glyph>
<glyph name="N" format="1">
  <advance width="1503.7125"/>
  <unicode hex="004E"/>
  <outline>
    <contour>
      <point x="208.0" y="0.0" type="line"/>
      <point x="208.0" y="1456.0" type="line"/>
      <point x="283.65" y="1456" type="line"/>
      <point x="1259.65" y="52" type="line"/>
      <point x="1225.65" y="47" type="line"/>
      <point x="1225.65" y="1456" type="line"/>
      <point x="1295.7125" y="1456.0" type="line"/>
      <point x="1295.7125" y="0.0" type="line"/>
      <point x="1215.65" y="0" type="line"/>
      <point x="256.65" y="1372" type="line"/>
      <point x="278.65" y="1379" type="line"/>
      <point x="278.4375" y="0.0" type="line"/>
    </contour>
  </outline>
</glyph>
<glyph name="O" format="1">
  <advance width="1541"/>
  <unicode hex="004F"/>
  <outline>
    <contour>
      <point x="769" y="42" type="curve" smooth="yes"/>
      <point x="1205" y="42"/>
      <point x="1361" y="361"/>
      <point x="1361" y="726" type="curve" smooth="yes"/>
      <point x="1361" y="1052"/>
      <point x="1197" y="1417"/>
      <point x="769" y="1417" type="curve" smooth="yes"/>
      <point x="358" y="1417"/>
      <point x="180" y="1043"/>
      <point x="180" y="720" type="curve" smooth="yes"/>
      <point x="180" y="356"/>
      <point x="361" y="42"/>
    </contour>
    <contour>
      <point x="769" y="-22" type="curve" smooth="yes"/>
      <point x="341" y="-22"/>
      <point x="110" y="265"/>
      <point x="110" y="720" type="curve" smooth="yes"/>
      <point x="110" y="1146"/>
      <point x="343" y="1481"/>
      <point x="769" y="1481" type="curve" smooth="yes"/>
      <point x="1195" y="1481"/>
      <point x="1431" y="1147"/>
      <point x="1431" y="726" type="curve" smooth="yes"/>
      <point x="1431" y="274"/>
      <point x="1188" y="-22"/>
    </contour>
  </outline>
</glyph>
<glyph name="R" format="1">
  <advance width="1266.4375"/>
  <unicode hex="0052"/>
  <outline>
    <contour>
      <point x="208.0" y="0.0" type="line"/>
      <point x="208" y="1456" type="line"/>
      <point x="569" y="1456" type="line" smooth="yes"/>
      <point x="860" y="1456"/>
      <point x="1039" y="1373"/>
      <point x="1037" y="1093" type="curve" smooth="yes"/>
      <point x="1035" y="874"/>
      <point x="951" y="765"/>
      <point x="765" y="722" type="curve"/>
      <point x="916" y="715"/>
      <point x="956" y="568"/>
      <point x="1014" y="417" type="curve" smooth="yes"/>
      <point x="1174.4375" y="0.0" type="line"/>
      <point x="1102.96875" y="0.0" type="line"/>
      <point x="949.48125" y="400.825" type="line" smooth="yes"/>
      <point x="861.0625" y="627.19"/>
      <point x="846.48125" y="686.2775"/>
      <point x="609.51875" y="686.2775" type="curve" smooth="yes"/>
      <point x="277.1" y="686.2775" type="line"/>
      <point x="277.1" y="0.0" type="line"/>
    </contour>
    <contour>
      <point x="282" y="756" type="line"/>
      <point x="585" y="756" type="line" smooth="yes"/>
      <point x="804" y="756"/>
      <point x="964" y="825"/>
      <point x="964" y="1073" type="curve" smooth="yes"/>
      <point x="964" y="1321"/>
      <point x="841" y="1387"/>
      <point x="580" y="1387" type="curve" smooth="yes"/>
      <point x="282" y="1387" type="line"/>
    </contour>
  </outline>
</glyph>
<glyph name="X" format="1">
  <advance width="926.11875"/>
  <unicode hex="0058"/>
  <outline>
    <contour>
      <point x="909.83125" y="0.0" type="line"/>
      <point x="452.10625" y="694.75875" type="line"/>
      <point x="23.625" y="0.0" type="line"/>
      <point x="-34.6" y="0.0" type="line"/>
      <point x="413.06875" y="750.9425" type="line"/>
      <point x="-59.75" y="1456.0" type="line"/>
      <point x="2.5125" y="1456.0" type="line"/>
      <point x="441.08125" y="804.18375" type="line"/>
      <point x="850.2875" y="1456.0" type="line"/>
      <point x="912.45625" y="1456.0" type="line"/>
      <point x="477.84375" y="753.97125" type="line"/>
      <point x="961.425" y="0.0" type="line"/>
    </contour>
  </outline>
</glyph>
<glyph name="bracketleft" format="1">
  <advance width="742.31875"/>
  <unicode hex="005B"/>
  <outline>
    <contour>
      <point x="232.45" y="-364.58625" type="line"/>
      <point x="232.45" y="1402.6925" type="line"/>
      <point x="621.875" y="1402.6925" type="line"/>
      <point x="621.875" y="1357.8275" type="line"/>
      <point x="285.0375" y="1357.8275" type="line"/>
      <point x="285.0375" y="-319.72125" type="line"/>
      <point x="622.875" y="-319.72125" type="line"/>
      <point x="622.875" y="-364.58625" type="line"/>
    </contour>
  </outline>
</glyph>
<glyph name="bracketright" format="1">
  <advance width="742.31875"/>
  <unicode hex="005D"/>
  <outline>
    <contour>
      <point x="198.2375" y="-364.58625" type="line"/>
      <point x="198.2375" y="-319.72125" type="line"/>
      <point x="542.5875" y="-319.72125" type="line"/>
      <point x="542.5875" y="1357.8275" type="line"/>
      <point x="195.9625" y="1357.8275" type="line"/>
      <point x="195.9625" y="1402.6925" type="line"/>
      <point x="593.9" y="1402.6925" type="line"/>
      <point x="593.9" y="-364.58625" type="line"/>
    </contour>
  </outline>
</glyph>
<glyph name="asciicircum" format="1">
  <advance width="1767.65"/>
  <unicode hex="005E"/>
  <outline>
    <contour>
      <point x="447.40625" y="622.19125" type="line"/>
      <point x="865.1125" y="1456.0" type="line"/>
      <point x="891.41875" y="1456.0" type="line"/>
      <point x="1320.24375" y="622.19125" type="line"/>
      <point x="1285.71875" y="622.19125" type="line"/>
      <point x="878.9625" y="1410.47125" type="line"/>
      <point x="477.96875" y="622.19125" type="line"/>
    </contour>
  </outline>
</glyph>
<glyph name="c" format="1">
  <advance width="984"/>
  <unicode hex="0063"/>
  <outline>
    <contour>
      <point x="609" y="-22" type="curve" smooth="yes"/>
      <point x="334" y="-22"/>
      <point x="88" y="131"/>
      <point x="88" y="491" type="curve" smooth="yes"/>
      <point x="88" y="929"/>
      <point x="375" y="1048"/>
      <point x="602" y="1048" type="curve" smooth="yes"/>
      <point x="705" y="1048"/>
      <point x="822" y="1007"/>
      <point x="890" y="951" type="curve"/>
      <point x="859" y="907" type="line"/>
      <point x="790" y="966"/>
      <point x="671" y="992"/>
      <point x="600" y="992" type="curve" smooth="yes"/>
      <point x="423" y="992"/>
      <point x="152" y="908"/>
      <point x="152" y="496" type="curve" smooth="yes"/>
      <point x="152" y="176"/>
      <point x="351" y="34"/>
      <point x="607" y="34" type="curve" smooth="yes"/>
      <point x="728" y="34"/>
      <point x="813" y="68"/>
      <point x="879" y="119" type="curve"/>
      <point x="911" y="76" type="line"/>
      <point x="869" y="35"/>
      <point x="751" y="-22"/>
    </contour>
  </outline>
</glyph>
<glyph name="f" format="1">
  <advance width="539.80625"/>
  <unicode hex="0066"/>
  <outline>
    <contour>
      <point x="234.54375" y="0.0" type="line"/>
      <point x="234.54375" y="987.0475" type="line"/>
      <point x="64.88125" y="987.0475" type="line"/>
      <point x="64.88125" y="1026.0" type="line"/>
      <point x="234.54375" y="1026.0" type="line"/>
      <point x="234.54375" y="1199.01875" type="line" smooth="yes"/>
      <point x="234.54375" y="1403.50875"/>
      <point x="296.275" y="1502.76875"/>
      <point x="550.34375" y="1502.76875" type="curve" smooth="yes"/>
      <point x="587.55625" y="1502.76875" type="line"/>
      <point x="599.4625" y="1447.9325" type="line"/>
      <point x="310.525" y="1447.9325"/>
      <point x="293.23125" y="1360.33625"/>
      <point x="293.23125" y="1244.70125" type="curve" smooth="yes"/>
      <point x="293.23125" y="1026.0" type="line"/>
      <point x="564.76875" y="1026.0" type="line"/>
      <point x="564.76875" y="987.0475" type="line"/>
      <point x="293.23125" y="987.0475" type="line"/>
      <point x="293.23125" y="0.0" type="line"/>
    </contour>
  </outline>
</glyph>
<glyph name="g" format="1">
  <advance width="1269.025"/>
  <unicode hex="0067"/>
  <outline>
    <contour>
      <point x="561" y="34" type="curve" smooth="yes"/>
      <point x="805" y="34"/>
      <point x="971" y="184"/>
      <point x="971" y="533" type="curve" smooth="yes"/>
      <point x="971" y="799"/>
      <point x="811" y="992"/>
      <point x="581" y="992" type="curve" smooth="yes"/>
      <point x="354" y="992"/>
      <point x="149" y="839"/>
      <point x="149" y="511" type="curve" smooth="yes"/>
      <point x="149" y="237"/>
      <point x="322" y="34"/>
    </contour>
    <contour>
      <point x="1001" y="329" type="line"/>
      <point x="950" y="113"/>
      <point x="791" y="-22"/>
      <point x="560" y="-22" type="curve" smooth="yes"/>
      <point x="290" y="-22"/>
      <point x="86" y="197"/>
      <point x="86.09375" y="503.2025" type="curve" smooth="yes"/>
      <point x="86" y="884"/>
      <point x="334" y="1048"/>
      <point x="584" y="1048" type="curve" smooth="yes"/>
      <point x="890" y="1048"/>
      <point x="979" y="791"/>
      <point x="1019" y="665" type="curve"/>
      <point x="984" y="674" type="line"/>
      <point x="984" y="1026" type="line"/>
      <point x="984" y="1026"/>
      <point x="1054" y="1026"/>
      <point x="1054" y="1026" type="curve"/>
      <point x="1050" y="752" type="line"/>
      <point x="1050" y="115" type="line" smooth="yes"/>
      <point x="1050" y="-377"/>
      <point x="690.2625" y="-427.26125"/>
      <point x="574.725" y="-427.26125" type="curve" smooth="yes"/>
      <point x="416.54375" y="-427.26125"/>
      <point x="310.15625" y="-398.26125"/>
      <point x="190.275" y="-341.2325" type="curve"/>
      <point x="193.30625" y="-277.19375" type="line"/>
      <point x="300.24375" y="-320.65625"/>
      <point x="365.0375" y="-359.81625"/>
      <point x="589.3" y="-359.81625" type="curve" smooth="yes"/>
      <point x="866.75" y="-359.81625"/>
      <point x="988" y="-185"/>
      <point x="988" y="187" type="curve" smooth="yes"/>
      <point x="988" y="339" type="line"/>
    </contour>
  </outline>
</glyph>
<glyph name="h" format="1">
  <advance width="1281.0125"/>
  <unicode hex="0068"/>
  <outline>
    <contour>
      <point x="221.9375" y="0.0" type="line"/>
      <point x="221.9375" y="1530.5675" type="line"/>
      <point x="279" y="1531" type="line"/>
      <point x="279" y="805" type="line"/>
      <point x="354" y="944"/>
      <point x="507" y="1048"/>
      <point x="691" y="1048" type="curve" smooth="yes"/>
      <point x="796" y="1048"/>
      <point x="1074" y="1037"/>
      <point x="1074" y="705" type="curve" smooth="yes"/>
      <point x="1074" y="0" type="line"/>
      <point x="1017" y="0" type="line"/>
      <point x="1017" y="673" type="line" smooth="yes"/>
      <point x="1017" y="886"/>
      <point x="932" y="992"/>
      <point x="692" y="992" type="curve" smooth="yes"/>
      <point x="474" y="992"/>
      <point x="279.35" y="818.24875"/>
      <point x="279.35" y="630.7975" type="curve" smooth="yes"/>
      <point x="279.35" y="0.0" type="line"/>
    </contour>
  </outline>
</glyph>
<glyph name="i" format="1">
  <advance width="480.6375"/>
  <unicode hex="0069"/>
  <outline>
    <contour>
      <point x="200.61875" y="0.0" type="line"/>
      <point x="200.61875" y="1026.0" type="line"/>
      <point x="266.95625" y="1026.0" type="line"/>
      <point x="266.95625" y="0.0" type="line"/>
    </contour>
    <contour>
      <point x="198.9125" y="1373.01875" type="line"/>
      <point x="198.9125" y="1456.0" type="line"/>
      <point x="265" y="1456" type="line"/>
      <point x="265" y="1373" type="line"/>
    </contour>
  </outline>
</glyph>
<glyph name="k" format="1">
  <advance width="1044.3625"/>
  <unicode hex="006B"/>
  <outline>
    <contour>
      <point x="221.9375" y="0.0" type="line"/>
      <point x="221.9375" y="1530.5675" type="line"/>
      <point x="279.35" y="1530.5675" type="line"/>
      <point x="279.35" y="564.3175" type="line"/>
      <point x="867.9625" y="1026.0" type="line"/>
      <point x="945.55625" y="1026.0" type="line"/>
      <point x="361.2625" y="555.595" type="line"/>
      <point x="991.06875" y="0.0" type="line"/>
      <point x="910.6875" y="0.0" type="line"/>
      <point x="279.35" y="566.22125" type="line"/>
      <point x="279.35" y="0.0" type="line"/>
    </contour>
  </outline>
</glyph>
<glyph name="p" format="1">
  <advance width="1232.4625"/>
  <unicode hex="0070"/>
  <outline>
    <contour>
      <point x="214.75625" y="-462.74125" type="line"/>
      <point x="214.75625" y="845.90375" type="line" smooth="yes"/>
      <point x="214.75625" y="841.79875"/>
      <point x="221.81875" y="937.76875"/>
      <point x="219.9375" y="1026.0" type="curve"/>
      <point x="277.13125" y="1026.0" type="line"/>
      <point x="277.13125" y="791.49" type="line"/>
      <point x="379.30625" y="1000.30625"/>
      <point x="587" y="1048"/>
      <point x="652" y="1048" type="curve" smooth="yes"/>
      <point x="944" y="1048"/>
      <point x="1143.81875" y="902.3075"/>
      <point x="1143.81875" y="529.82625" type="curve" smooth="yes"/>
      <point x="1143.81875" y="120.9525"/>
      <point x="930" y="-22"/>
      <point x="675" y="-22" type="curve" smooth="yes"/>
      <point x="555" y="-22"/>
      <point x="364.79375" y="29.23"/>
      <point x="277.13125" y="203.45125" type="curve"/>
      <point x="277.13125" y="-462.74125" type="line"/>
    </contour>
    <contour>
      <point x="697" y="34" type="curve" smooth="yes"/>
      <point x="892" y="34"/>
      <point x="1075.8375" y="188.03875"/>
      <point x="1075.8375" y="528.9425" type="curve" smooth="yes"/>
      <point x="1075.8375" y="839.99"/>
      <point x="906" y="992"/>
      <point x="712" y="992" type="curve" smooth="yes"/>
      <point x="486" y="992"/>
      <point x="294.70625" y="816.93125"/>
      <point x="294.70625" y="466.20125" type="curve" smooth="yes"/>
      <point x="294.70625" y="164.98"/>
      <point x="490" y="34"/>
    </contour>
  </outline>
</glyph>
<glyph name="s" format="1">
  <advance width="888.4625"/>
  <unicode hex="0073"/>
  <outline>
    <contour>
      <point x="447.0" y="-22.0" type="curve"/>
      <point x="312" y="-22"/>
      <point x="165" y="41"/>
      <point x="115.725" y="93.2025" type="curve"/>
      <point x="145.44375" y="141.03875" type="line"/>
      <point x="213" y="92"/>
      <point x="335" y="34"/>
      <point x="449.0" y="34.0" type="curve"/>
      <point x="556.0" y="34.0"/>
      <point x="739" y="68"/>
      <point x="739" y="256" type="curve" smooth="yes"/>
      <point x="739" y="467"/>
      <point x="534" y="465"/>
      <point x="291.1125" y="545.0475" type="curve"/>
      <point x="164.225" y="592.27875"/>
      <point x="105.3875" y="652.395"/>
      <point x="105.3875" y="790.85625" type="curve" smooth="yes"/>
      <point x="105.3875" y="971.145"/>
      <point x="296" y="1048"/>
      <point x="468" y="1048" type="curve"/>
      <point x="635" y="1048"/>
      <point x="724.0" y="1002.0"/>
      <point x="764.26875" y="983.56625" type="curve"/>
      <point x="736.0" y="936.0" type="line"/>
      <point x="713.0" y="948.0"/>
      <point x="621" y="993"/>
      <point x="470" y="993" type="curve"/>
      <point x="280" y="993"/>
      <point x="168" y="922"/>
      <point x="167" y="797" type="curve" smooth="yes"/>
      <point x="166" y="615"/>
      <point x="283" y="605"/>
      <point x="585.80625" y="521.57625" type="curve" smooth="yes"/>
      <point x="731" y="482"/>
      <point x="803" y="397"/>
      <point x="803" y="267" type="curve" smooth="yes"/>
      <point x="803" y="63"/>
      <point x="656.0" y="-22.0"/>
    </contour>
  </outline>
</glyph>
<glyph name="x" format="1">
  <advance width="1136.1375"/>
  <unicode hex="0078"/>
  <outline>
    <contour>
      <point x="69.48125" y="0.0" type="line"/>
      <point x="533.75625" y="534.71125" type="line"/>
      <point x="107.95625" y="1031.3625" type="line"/>
      <point x="171.6" y="1026.0" type="line"/>
      <point x="556.14375" y="552.01" type="line"/>
      <point x="952.74375" y="1026.0" type="line"/>
      <point x="1038.0625" y="1026.0" type="line"/>
      <point x="602.2625" y="504.115" type="line"/>
      <point x="1060.96875" y="0.0" type="line"/>
      <point x="1001.7375" y="0.0" type="line"/>
      <point x="576.325" y="493.7875" type="line"/>
      <point x="149.13125" y="0.0" type="line"/>
    </contour>
  </outline>
</glyph>
<glyph name="braceleft" format="1">
  <advance width="996.11875"/>
  <unicode hex="007B"/>
  <outline>
    <contour>
      <point x="799.10625" y="-369.7025" type="line"/>
      <point x="815.08125" y="-350.93375"/>
      <point x="417.10625" y="-384.11375"/>
      <point x="417.10625" y="-214.79625" type="curve" smooth="yes"/>
      <point x="417.10625" y="112.28" type="line" smooth="yes"/>
      <point x="417.10625" y="204.51"/>
      <point x="347.65" y="423.3275"/>
      <point x="118.3875" y="463.01" type="curve"/>
      <point x="118.3875" y="523.76" type="line"/>
      <point x="255.80625" y="549.5"/>
      <point x="416.675" y="681.03875"/>
      <point x="418.95" y="837.72125" type="curve"/>
      <point x="418.95" y="1134.405" type="line" smooth="yes"/>
      <point x="418.95" y="1325.57875"/>
      <point x="684.7" y="1366.95125"/>
      <point x="794.7125" y="1366.95125" type="curve"/>
      <point x="794.7125" y="1320.9125" type="line"/>
      <point x="740.8875" y="1313.94125"/>
      <point x="468.575" y="1351.93125"/>
      <point x="468.575" y="1252.73" type="curve" smooth="yes"/>
      <point x="468.575" y="884.91375" type="line" smooth="yes"/>
      <point x="468.575" y="645.12625"/>
      <point x="315.4" y="535.00875"/>
      <point x="129.65" y="504.15375" type="curve"/>
      <point x="352.09375" y="467.27"/>
      <point x="468.575" y="219.82875"/>
      <point x="468.575" y="209.79" type="curve" smooth="yes"/>
      <point x="468.575" y="59.8375" type="line" smooth="yes"/>
      <point x="468.575" y="-211.095"/>
      <point x="601.9625" y="-323.66375"/>
      <point x="799.10625" y="-322.51875" type="curve"/>
    </contour>
  </outline>
</glyph>
<glyph name="braceright" format="1">
  <advance width="892.65"/>
  <unicode hex="007D"/>
  <outline>
    <contour>
      <point x="96.2125" y="-369.7025" type="curve"/>
      <point x="96.2125" y="-323.66375" type="line"/>
      <point x="150.0375" y="-316.6925"/>
      <point x="422.35" y="-355.21875"/>
      <point x="422.35" y="-256.0175" type="curve" smooth="yes"/>
      <point x="422.35" y="111.79875" type="line" smooth="yes"/>
      <point x="422.35" y="351.58625"/>
      <point x="575.525" y="461.70375"/>
      <point x="761.275" y="492.55875" type="curve"/>
      <point x="538.83125" y="529.4425"/>
      <point x="422.35" y="776.88375"/>
      <point x="422.35" y="786.9225" type="curve" smooth="yes"/>
      <point x="422.35" y="936.875" type="line" smooth="yes"/>
      <point x="422.35" y="1207.8075"/>
      <point x="288.9625" y="1320.37625"/>
      <point x="91.81875" y="1319.23125" type="curve"/>
      <point x="91.81875" y="1366.95125" type="line"/>
      <point x="75.84375" y="1348.1825"/>
      <point x="473.81875" y="1380.82625"/>
      <point x="473.81875" y="1211.50875" type="curve" smooth="yes"/>
      <point x="473.81875" y="884.4325" type="line" smooth="yes"/>
      <point x="473.81875" y="792.2025"/>
      <point x="543.275" y="573.385"/>
      <point x="772.5375" y="533.7025" type="curve"/>
      <point x="772.5375" y="472.9525" type="line"/>
      <point x="635.11875" y="447.2125"/>
      <point x="474.81875" y="315.67375"/>
      <point x="472.54375" y="158.99125" type="curve"/>
      <point x="472.54375" y="-137.6925" type="line" smooth="yes"/>
      <point x="472.54375" y="-328.86625"/>
      <point x="206.225" y="-369.7025"/>
    </contour>
  </outline>
</glyph>
<glyph name="asciitilde" format="1">
  <advance width="746.925"/>
  <unicode hex="007E"/>
  <outline>
    <contour>
      <point x="-75.2125" y="441.13375" type="curve"/>
      <point x="-89.8625" y="451.91375" type="line"/>
      <point x="-62.1375" y="571.2025"/>
      <point x="-25.0375" y="606.9525"/>
      <point x="125.6625" y="606.9525" type="curve" smooth="yes"/>
      <point x="185.3625" y="606.9525"/>
      <point x="247.15625" y="597.78"/>
      <point x="320.09375" y="579.375" type="curve" smooth="yes"/>
      <point x="525.4125" y="504.83625"/>
      <point x="533.09375" y="503.60625"/>
      <point x="609.3" y="503.60625" type="curve" smooth="yes"/>
      <point x="735.84375" y="503.60625"/>
      <point x="798.925" y="590.60625"/>
      <point x="822.2" y="681.60625" type="curve"/>
      <point x="836.7875" y="672.08625" type="line"/>
      <point x="805.18125" y="538.595"/>
      <point x="738.09375" y="445.74125"/>
      <point x="603.90625" y="445.74125" type="curve" smooth="yes"/>
      <point x="549.575" y="445.74125"/>
      <point x="472.5375" y="472.48"/>
      <point x="390.5375" y="493.56625" type="curve" smooth="yes"/>
      <point x="187.49375" y="570.78625"/>
      <point x="213.63125" y="548.9425"/>
      <point x="124.26875" y="548.9425" type="curve" smooth="yes"/>
      <point x="-18.275" y="548.9425"/>
      <point x="-56.33125" y="533.98875"/>
    </contour>
  </outline>
</glyph>
<glyph name="cent" format="1">
  <advance width="938.4625"/>
  <unicode hex="00A2"/>
  <outline>
    <contour>
      <point x="554.975" y="-161.46125" type="line"/>
      <point x="554.975" y="1254.82625" type="line"/>
      <point x="618.49375" y="1254.82625" type="line"/>
      <point x="618.49375" y="-161.46125" type="line"/>
    </contour>
    <component base="c"/>
  </outline>
</glyph>
<glyph name="currency" format="1">
  <advance width="1218.0"/>
  <unicode hex="00A4"/>
  <outline>
    <contour>
      <point x="1048.0" y="547.82625" type="line"/>
      <point x="862.0" y="733.82625" type="line"/>
      <point x="794.0" y="677.82625"/>
      <point x="706.0" y="643.82625"/>
      <point x="610.0" y="643.82625" type="curve" smooth="yes"/>
      <point x="514.0" y="643.82625"/>
      <point x="426.0" y="677.82625"/>
      <point x="358.0" y="734.82625" type="curve"/>
      <point x="171.0" y="547.82625" type="line"/>
      <point x="120.0" y="598.82625" type="line"/>
      <point x="307.0" y="785.82625" type="line"/>
      <point x="252.0" y="851.82625"/>
      <point x="219.0" y="935.82625"/>
      <point x="219.0" y="1028.82625" type="curve" smooth="yes"/>
      <point x="219.0" y="1125.82625"/>
      <point x="255.0" y="1213.82625"/>
      <point x="314.0" y="1280.82625" type="curve"/>
      <point x="119.0" y="1475.82625" type="line"/>
      <point x="170.0" y="1526.82625" type="line"/>
      <point x="367.0" y="1330.82625" type="line"/>
      <point x="433.0" y="1382.82625"/>
      <point x="518.0" y="1413.82625"/>
      <point x="610.0" y="1413.82625" type="curve" smooth="yes"/>
      <point x="702.0" y="1413.82625"/>
      <point x="786.0" y="1382.82625"/>
      <point x="853.0" y="1331.82625" type="curve"/>
      <point x="1048.0" y="1526.82625" type="line"/>
      <point x="1099.0" y="1475.82625" type="line"/>
      <point x="906.0" y="1282.82625" type="line"/>
      <point x="966.0" y="1214.82625"/>
      <point x="1002.0" y="1126.82625"/>
      <point x="1002.0" y="1028.82625" type="curve" smooth="yes"/>
      <point x="1002.0" y="935.82625"/>
      <point x="969.0" y="850.82625"/>
      <point x="913.0" y="783.82625" type="curve"/>
      <point x="1099.0" y="598.82625" type="line"/>
    </contour>
    <contour>
      <point x="609.0" y="714.82625" type="curve" smooth="yes"/>
      <point x="783.0" y="714.82625"/>
      <point x="911.0" y="858.7975"/>
      <point x="911.0" y="1032.7975" type="curve" smooth="yes"/>
      <point x="911.0" y="1206.7975"/>
      <point x="783.0" y="1335.82625"/>
      <point x="609.0" y="1335.82625" type="curve" smooth="yes"/>
      <point x="435.0" y="1335.82625"/>
      <point x="307.0" y="1206.7975"/>
      <point x="307.0" y="1032.7975" type="curve" smooth="yes"/>
      <point x="307.0" y="858.7975"/>
      <point x="435.0" y="714.82625"/>
    </contour>
  </outline>
</glyph>
<glyph name="dieresis" format="1">
  <advance width="743.0"/>
  <unicode hex="00A8"/>
  <outline>
    <contour>
      <point x="274.7" y="1231.5975" type="line"/>
      <point x="274.7" y="1307.8825" type="line"/>
      <point x="329.8375" y="1307.8825" type="line"/>
      <point x="329.8375" y="1231.5975" type="line"/>
    </contour>
    <contour>
      <point x="418.55625" y="1231.5975" type="line"/>
      <point x="418.55625" y="1307.8825" type="line"/>
      <point x="474.96875" y="1307.8825" type="line"/>
      <point x="474.96875" y="1231.5975" type="line"/>
    </contour>
  </outline>
</glyph>
<glyph name="ordfeminine" format="1">
  <advance width="640.2875"/>
  <unicode hex="00AA"/>
  <outline>
    <contour>
      <point x="302.9125" y="822.3075" type="curve" smooth="yes"/>
      <point x="363.64375" y="822.3075"/>
      <point x="461.94375" y="829.885"/>
      <point x="524.03125" y="911.625" type="curve"/>
      <point x="514.00625" y="822.74125" type="line"/>
      <point x="580.65" y="822.74125" type="line"/>
      <point x="570.25625" y="977.76"/>
      <point x="573.65" y="1018.52875"/>
      <point x="576.76875" y="921.7975" type="curve" smooth="yes"/>
      <point x="578.04375" y="840.69125"/>
      <point x="584.4375" y="1479.855"/>
      <point x="584.4375" y="1293.27875" type="curve"/>
      <point x="584.4375" y="1412.82625"/>
      <point x="484.25" y="1478.0"/>
      <point x="353.825" y="1478.0" type="curve" smooth="yes"/>
      <point x="224.58125" y="1478.0"/>
      <point x="108.7" y="1413.82625"/>
      <point x="108.7" y="1413.82625" type="curve"/>
      <point x="116.49375" y="1372.13375" type="line"/>
      <point x="116.49375" y="1372.13375"/>
      <point x="220.43125" y="1427.27875"/>
      <point x="368.51875" y="1427.27875" type="curve" smooth="yes"/>
      <point x="527.41875" y="1427.27875"/>
      <point x="537.4875" y="1362.10375"/>
      <point x="537.4875" y="1221.595" type="curve"/>
      <point x="537.4875" y="1211.625" type="line"/>
      <point x="370.725" y="1211.625" type="line" smooth="yes"/>
      <point x="162.425" y="1211.625"/>
      <point x="59.6375" y="1132.625"/>
      <point x="59.6375" y="1020.22" type="curve" smooth="yes"/>
      <point x="59.6375" y="914.07625"/>
      <point x="137.1" y="822.3075"/>
    </contour>
    <contour>
      <point x="319.1875" y="886.71125" type="curve" smooth="yes"/>
      <point x="193.13125" y="886.71125"/>
      <point x="137.4625" y="933.65375"/>
      <point x="137.4625" y="1030.33625" type="curve" smooth="yes"/>
      <point x="137.4625" y="1174.01875"/>
      <point x="306.7" y="1160.25"/>
      <point x="540.60625" y="1160.25" type="curve"/>
      <point x="540.60625" y="1161.395"/>
      <point x="540.60625" y="1122.19125"/>
      <point x="540.60625" y="1123.33625" type="curve" smooth="yes"/>
      <point x="540.60625" y="1034.01875"/>
      <point x="528.725" y="886.71125"/>
    </contour>
  </outline>
</glyph>
<glyph name="logicalnot" format="1">
  <advance width="1477.90625"/>
  <unicode hex="00AC"/>
  <outline>
    <contour>
      <point x="1245.89375" y="257.85625" type="line"/>
      <point x="1245.89375" y="716.27875" type="line"/>
      <point x="265.6875" y="716.27875" type="line"/>
      <point x="265.6875" y="779.28875" type="line"/>
      <point x="1291.15" y="779.28875" type="line"/>
      <point x="1291.15" y="257.85625" type="line"/>
    </contour>
  </outline>
</glyph>
<glyph name="uni00AD" format="1">
  <advance width="728.0"/>
  <unicode hex="00AD"/>
  <outline>
    <contour>
      <point x="130.45" y="1165.43375" type="line"/>
      <point x="128.175" y="1250.63375" type="line"/>
      <point x="631.425" y="1250.63375" type="line"/>
      <point x="633.7" y="1165.43375" type="line"/>
    </contour>
  </outline>
</glyph>
<glyph name="macron" format="1">
  <advance width="650.0375"/>
  <unicode hex="00AF"/>
  <outline>
    <contour>
      <point x="73.39375" y="1426.03375" type="line"/>
      <point x="73.39375" y="1510.6975" type="line"/>
      <point x="576.64375" y="1510.6975" type="line"/>
      <point x="576.64375" y="1426.03375" type="line"/>
    </contour>
  </outline>
</glyph>
<glyph name="degree" format="1">
  <advance width="791.275"/>
  <unicode hex="00B0"/>
  <outline>
    <contour>
      <point x="395.6375" y="1418.49125" type="curve" smooth="yes"/>
      <point x="219.51875" y="1418.49125"/>
      <point x="110.9375" y="1292.14375"/>
      <point x="110.9375" y="1142.0575" type="curve" smooth="yes"/>
      <point x="110.9375" y="993.11625"/>
      <point x="222.3625" y="861.7975"/>
      <point x="395.6375" y="861.7975" type="curve" smooth="yes"/>
      <point x="567.6375" y="861.7975"/>
      <point x="680.3375" y="993.11625"/>
      <point x="680.3375" y="1142.0575" type="curve" smooth="yes"/>
      <point x="680.3375" y="1292.14375"/>
      <point x="569.9125" y="1418.49125"/>
    </contour>
    <contour>
      <point x="395.6375" y="934.34625" type="curve" smooth="yes"/>
      <point x="246.88125" y="934.34625"/>
      <point x="189.1" y="1040.37625"/>
      <point x="189.1" y="1144.2025" type="curve" smooth="yes"/>
      <point x="189.1" y="1249.17375"/>
      <point x="254.275" y="1348.76875"/>
      <point x="395.6375" y="1348.76875" type="curve" smooth="yes"/>
      <point x="534.45" y="1348.76875"/>
      <point x="598.4875" y="1249.17375"/>
      <point x="598.4875" y="1144.2025" type="curve" smooth="yes"/>
      <point x="598.4875" y="1040.37625"/>
      <point x="541.84375" y="934.34625"/>
    </contour>
  </outline>
</glyph>
<glyph name="periodcentered" format="1">
  <advance width="259.325"/>
  <unicode hex="00B7"/>
  <outline>
    <contour>
      <point x="66.94375" y="467.635" type="line"/>
      <point x="66.94375" y="608.4425" type="line"/>
      <point x="192.38125" y="608.4425" type="line"/>
      <point x="192.38125" y="467.635" type="line"/>
    </contour>
  </outline>
</glyph>
<glyph name="ordmasculine" format="1">
  <advance width="831.7875"/>
  <unicode hex="00BA"/>
  <outline>
    <contour>
      <point x="422.58125" y="897.595" type="curve" smooth="yes"/>
      <point x="581.66875" y="897.595"/>
      <point x="673.45625" y="1000.50875"/>
      <point x="673.45625" y="1165.19125" type="curve" smooth="yes"/>
      <point x="673.45625" y="1335.72875"/>
      <point x="581.66875" y="1439.9325"/>
      <point x="413.9125" y="1439.9325" type="curve" smooth="yes"/>
      <point x="254.55" y="1439.9325"/>
      <point x="166.15625" y="1337.01875"/>
      <point x="166.15625" y="1170.33625" type="curve" smooth="yes"/>
      <point x="166.15625" y="999.65375"/>
      <point x="251.1" y="897.595"/>
    </contour>
    <contour>
      <point x="415.9125" y="829.395" type="curve" smooth="yes"/>
      <point x="197.60625" y="829.395"/>
      <point x="83.66875" y="982.56875"/>
      <point x="83.66875" y="1174.48125" type="curve" smooth="yes"/>
      <point x="83.66875" y="1364.68375"/>
      <point x="201.4875" y="1514.5675"/>
      <point x="418.03125" y="1514.5675" type="curve" smooth="yes"/>
      <point x="638.85" y="1514.5675"/>
      <point x="747.55" y="1368.19125"/>
      <point x="747.55" y="1173.1625" type="curve" smooth="yes"/>
      <point x="747.55" y="984.27875"/>
      <point x="630.6125" y="829.395"/>
    </contour>
  </outline>
</glyph>
<glyph name="threequarters" format="1">
  <advance width="1294.75"/>
  <unicode hex="00BE"/>
  <outline>
    <contour>
      <point x="343.1375" y="600.855" type="curve" smooth="yes"/>
      <point x="254.65" y="600.855"/>
      <point x="199.975" y="633.855"/>
      <point x="162.3375" y="701.82625" type="curve"/>
      <point x="220.49375" y="757.5775" type="line"/>
      <point x="232.83125" y="709.40375"/>
      <point x="281.375" y="676.75125"/>
      <point x="351.8875" y="676.75125" type="curve" smooth="yes"/>
      <point x="461.06875" y="676.75125"/>
      <point x="579.6125" y="725.60625"/>
      <point x="579.6125" y="827.49125" type="curve" smooth="yes"/>
      <point x="579.6125" y="966.885"/>
      <point x="465.85625" y="990.97125"/>
      <point x="292.46875" y="990.97125" type="curve" smooth="yes"/>
      <point x="279.95625" y="990.97125"/>
      <point x="282.25" y="988.82625"/>
      <point x="282.25" y="988.82625" type="curve"/>
      <point x="282.25" y="1083.4625" type="line"/>
      <point x="279.8" y="1083.4625" type="line" smooth="yes"/>
      <point x="440.58125" y="1083.4625"/>
      <point x="550.21875" y="1100.40375"/>
      <point x="550.21875" y="1232.7975" type="curve" smooth="yes"/>
      <point x="550.21875" y="1322.71125"/>
      <point x="479.88125" y="1357.85625"/>
      <point x="385.975" y="1357.85625" type="curve" smooth="yes"/>
      <point x="301.79375" y="1357.85625"/>
      <point x="257.91875" y="1316.62375"/>
      <point x="230.4" y="1266.7975" type="curve"/>
      <point x="175.51875" y="1333.3175" type="line"/>
      <point x="187.61875" y="1397.28875"/>
      <point x="260.375" y="1449.2025"/>
      <point x="347.8625" y="1449.2025" type="curve" smooth="yes"/>
      <point x="475.95625" y="1449.2025"/>
      <point x="622.98125" y="1351.1725"/>
      <point x="622.98125" y="1209.14375" type="curve" smooth="yes"/>
      <point x="622.98125" y="1111.2875"/>
      <point x="567.40625" y="1059.49125"/>
      <point x="566.15625" y="1022.49125" type="curve"/>
      <point x="574.2875" y="982.52"/>
      <point x="632.075" y="942.02875"/>
      <point x="632.075" y="824.49125" type="curve" smooth="yes"/>
      <point x="632.075" y="711.74"/>
      <point x="504.1375" y="600.855"/>
    </contour>
    <contour>
      <point x="804.35625" y="340.0875" type="line"/>
      <point x="1107.83125" y="340.0875" type="line"/>
      <point x="1107.83125" y="756.875" type="line"/>
    </contour>
    <contour>
      <point x="1109.83125" y="82.51" type="line"/>
      <point x="1109.83125" y="263.7125" type="line"/>
      <point x="719.925" y="263.7125" type="line"/>
      <point x="719.925" y="329.74" type="line"/>
      <point x="1082.80625" y="862.48" type="line"/>
      <point x="1157.84375" y="862.48" type="line"/>
      <point x="1157.84375" y="340.0875" type="line"/>
      <point x="1256.78125" y="340.0875" type="line"/>
      <point x="1281.80625" y="263.7125" type="line"/>
      <point x="1153.29375" y="263.7125" type="line"/>
      <point x="1153.29375" y="82.51" type="line"/>
    </contour>
    <contour>
      <point x="240.6625" y="0.0" type="line"/>
      <point x="1170.75" y="1456.0" type="line"/>
      <point x="1238.25" y="1456.0" type="line"/>
      <point x="312.00625" y="0.0" type="line"/>
    </contour>
  </outline>
</glyph>
<glyph name="AE" format="1">
  <advance width="1758.3"/>
  <unicode hex="00C6"/>
  <outline>
    <contour>
      <point x="39.90625" y="0.0" type="line"/>
      <point x="869.0" y="1456.0" type="line"/>
      <point x="1721.38125" y="1456.0" type="line"/>
      <point x="1721.38125" y="1405.02" type="line"/>
      <point x="966.8125" y="1405.02" type="line"/>
      <point x="1019.44375" y="781.4325" type="line"/>
      <point x="1632.05" y="781.4325" type="line"/>
      <point x="1632.05" y="741.27875" type="line"/>
      <point x="1007.90625" y="741.27875" type="line"/>
      <point x="1070.0875" y="46.15375" type="line"/>
      <point x="1745.10625" y="46.15375" type="line"/>
      <point x="1745.10625" y="0.0" type="line"/>
      <point x="1060.1" y="0.0" type="line"/>
      <point x="1013.0375" y="485.1925" type="line"/>
      <point x="344.98125" y="485.1925" type="line"/>
      <point x="63.475" y="0.0" type="line"/>
    </contour>
    <contour>
      <point x="359.80625" y="530.26" type="line"/>
      <point x="1005.70625" y="530.26" type="line"/>
      <point x="934.525" y="1405.02" type="line"/>
      <point x="859.28125" y="1405.02" type="line"/>
    </contour>
  </outline>
</glyph>
<glyph name="multiply" format="1">
  <advance width="1150.25"/>
  <unicode hex="00D7"/>
  <outline>
    <contour>
      <point x="242.975" y="196.53875" type="line"/>
      <point x="213.39375" y="233.1725" type="line"/>
      <point x="543.26875" y="561.9425" type="line"/>
      <point x="213.39375" y="891.24875" type="line"/>
      <point x="242.975" y="927.34625" type="line"/>
      <point x="575.125" y="598.57625" type="line"/>
      <point x="903.725" y="927.34625" type="line"/>
      <point x="936.85625" y="887.4225" type="line"/>
      <point x="605.98125" y="561.9425" type="line"/>
      <point x="936.85625" y="236.4625" type="line"/>
      <point x="903.725" y="196.53875" type="line"/>
      <point x="575.125" y="523.16375" type="line"/>
    </contour>
  </outline>
</glyph>
<glyph name="eth" format="1">
  <advance width="1235.63125"/>
  <unicode hex="00F0"/>
  <outline>
    <contour>
      <point x="619.69375" y="-21.855" type="curve" smooth="yes"/>
      <point x="948.8125" y="-21.855"/>
      <point x="1124.18125" y="365.73125"/>
      <point x="1124.18125" y="643.91375" type="curve" smooth="yes"/>
      <point x="1124.18125" y="536.75524375"/>
      <point x="1633.86875" y="1253.53"/>
      <point x="317.225" y="1575.0475" type="curve"/>
      <point x="236.38125" y="1510.52875" type="line"/>
      <point x="-296.37315625" y="1623.1083125"/>
      <point x="1065.83125" y="1683.31625"/>
      <point x="1028.8375" y="631.50125" type="curve" smooth="yes"/>
      <point x="1020.05" y="663.27125"/>
      <point x="1014.38125" y="668.5475"/>
      <point x="1014.38125" y="688.40375" type="curve"/>
      <point x="1039.25" y="726.01"/>
      <point x="964.04375" y="887.9125"/>
      <point x="663.025" y="887.9125" type="curve" smooth="yes"/>
      <point x="382.75" y="887.9125"/>
      <point x="114.7875" y="681.665"/>
      <point x="114.7875" y="416.52" type="curve" smooth="yes"/>
      <point x="114.7875" y="150.375"/>
      <point x="313.3" y="-21.855"/>
    </contour>
    <contour>
      <point x="576.54375" y="51.0975" type="curve" smooth="yes"/>
      <point x="307.76875" y="51.0975"/>
      <point x="192.28125" y="255.71"/>
      <point x="192.28125" y="427.94125" type="curve" smooth="yes"/>
      <point x="192.28125" y="609.7675"/>
      <point x="311.28125" y="825.0475"/>
      <point x="622.69375" y="825.0475" type="curve" smooth="yes"/>
      <point x="829.75" y="825.0475"/>
      <point x="1024.46875" y="681.24875"/>
      <point x="1024.46875" y="515.4225" type="curve" smooth="yes"/>
      <point x="1024.46875" y="318.625"/>
      <point x="984.91875" y="51.0975"/>
    </contour>
    <contour>
      <point x="668.5625" y="1184.1075" type="line"/>
      <point x="829.68125" y="1569.70375" type="line"/>
      <point x="753.0125" y="1603.39625" type="line"/>
      <point x="591.89375" y="1219.945" type="line"/>
    </contour>
  </outline>
</glyph>
<glyph name="oslash" format="1">
  <advance width="1218.51875"/>
  <unicode hex="00F8"/>
  <outline>
    <contour>
      <point x="361.66875" y="-211.145" type="line"/>
      <point x="270.0625" y="-184.91375" type="line"/>
      <point x="902.7875" y="1299.4525" type="line"/>
      <point x="999.5125" y="1268.395" type="line"/>
    </contour>
    <component base="o"/>
  </outline>
</glyph>
<glyph name="thorn" format="1">
  <advance width="1252.75"/>
  <unicode hex="00FE"/>
  <outline>
    <contour>
      <point x="179.96875" y="-462.74125" type="line"/>
      <point x="179.96875" y="1446.9125" type="line"/>
      <point x="258.525" y="1446.9125" type="line"/>
      <point x="261.64375" y="815.0975" type="line"/>
      <point x="379.79375" y="975.43375"/>
      <point x="487.3375" y="1051.0"/>
      <point x="693.0875" y="1051.0" type="curve" smooth="yes"/>
      <point x="1020.75625" y="1051.0"/>
      <point x="1152.18125" y="817.6525"/>
      <point x="1152.18125" y="529.82625" type="curve" smooth="yes"/>
      <point x="1152.18125" y="237.855"/>
      <point x="999.3" y="-23.0"/>
      <point x="694.3625" y="-23.0" type="curve" smooth="yes"/>
      <point x="495.79375" y="-23.0"/>
      <point x="369.73125" y="48.56625"/>
      <point x="259.64375" y="209.845" type="curve"/>
      <point x="260.91875" y="-462.74125" type="line"/>
    </contour>
    <contour>
      <point x="676.6" y="31.865" type="curve" smooth="yes"/>
      <point x="960.8375" y="31.865"/>
      <point x="1082.2" y="262.60625"/>
      <point x="1082.2" y="521.0" type="curve" smooth="yes"/>
      <point x="1082.2" y="763.5675"/>
      <point x="980.95625" y="994.135"/>
      <point x="679.48125" y="994.135" type="curve" smooth="yes"/>
      <point x="363.6125" y="994.135"/>
      <point x="259.64375" y="755.24875"/>
      <point x="259.64375" y="494.0" type="curve" smooth="yes"/>
      <point x="259.64375" y="228.78"/>
      <point x="408.6375" y="31.865"/>
    </contour>
  </outline>
</glyph>
<glyph name="hbar" format="1">
  <advance width="1264.625"/>
  <unicode hex="0127"/>
  <outline>
    <contour>
      <point x="46.78125" y="1190.9425" type="line"/>
      <point x="43.9375" y="1302.26" type="line"/>
      <point x="547.1875" y="1302.26" type="line"/>
      <point x="550.03125" y="1190.9425" type="line"/>
    </contour>
    <component base="h"/>
  </outline>
</glyph>
<glyph name="lslash" format="1">
  <advance width="503.0"/>
  <unicode hex="0142"/>
  <outline>
    <contour>
      <point x="231.35625" y="0.0" type="line"/>
      <point x="231.35625" y="646.46125" type="line"/>
      <point x="-8.7875" y="546.46125" type="line"/>
      <point x="-8.7875" y="589.905" type="line"/>
      <point x="232.63125" y="689.905" type="line"/>
      <point x="232.63125" y="1530.5675" type="line"/>
      <point x="291.6125" y="1530.5675" type="line"/>
      <point x="291.6125" y="691.91375" type="line"/>
      <point x="549.78125" y="798.03" type="line"/>
      <point x="549.78125" y="760.7025" type="line"/>
      <point x="290.3375" y="655.87625" type="line"/>
      <point x="290.3375" y="0.0" type="line"/>
    </contour>
  </outline>
</glyph>
<glyph name="Eng" format="1">
  <advance width="1468.675"/>
  <unicode hex="014A"/>
  <outline>
    <contour>
      <point x="457.58125" y="-243.50125" type="curve"/>
      <point x="457.1625" y="-171.25875" type="line"/>
      <point x="685.622875" y="-227.958965"/>
      <point x="828.9273" y="-247.23223"/>
      <point x="923.99425" y="-247.23223" type="curve" smooth="yes"/>
      <point x="1188.96688604" y="-247.23223"/>
      <point x="1155.82768131" y="-65.6941727458"/>
      <point x="1194.25735353" y="75.2111931859" type="curve" smooth="yes"/>
      <point x="1195.90302473" y="96.1552005457"/>
      <point x="1197.17366084" y="-45.8852879834"/>
      <point x="1198.66875" y="-23.85714" type="curve"/>
      <point x="275.80625" y="1259.72" type="line"/>
      <point x="277.225" y="1290.10625" type="line"/>
      <point x="277.225" y="0.0" type="line"/>
      <point x="182.33125" y="0.0" type="line"/>
      <point x="182.33125" y="1456.0" type="line"/>
      <point x="288.04375" y="1456.0" type="line"/>
      <point x="1187.86875" y="169.02875" type="line"/>
      <point x="1203.7875" y="127.16375" type="line"/>
      <point x="1203.7875" y="1456.0" type="line"/>
      <point x="1287.61875" y="1456.0" type="line"/>
      <point x="1287.61875" y="291.80625" type="line" smooth="yes"/>
      <point x="1287.61875" y="-27.45375"/>
      <point x="1326.96325" y="-303.3311"/>
      <point x="920.161425" y="-303.3311" type="curve" smooth="yes"/>
      <point x="806.974275" y="-303.3311"/>
      <point x="655.62875" y="-284.881555"/>
    </contour>
  </outline>
</glyph>
<glyph name="OE" format="1">
  <advance width="2032.81875"/>
  <unicode hex="0152"/>
  <outline>
    <contour>
      <point x="776.1875" y="-21.855" type="curve" smooth="yes"/>
      <point x="252.80625" y="-33.855"/>
      <point x="111.11875" y="352.10625"/>
      <point x="111.11875" y="726.17375" type="curve" smooth="yes"/>
      <point x="111.11875" y="1128.5775"/>
      <point x="343.28125" y="1523.625"/>
      <point x="896.5375" y="1484.145" type="curve" smooth="yes"/>
      <point x="893.25" y="1466.405"/>
      <point x="1073.9375" y="1502.25"/>
      <point x="1224.65625" y="1361.14375" type="curve"/>
      <point x="1224.65625" y="1456.0" type="line"/>
      <point x="1986.26875" y="1456.0" type="line"/>
      <point x="1986.26875" y="1386.81625" type="line"/>
      <point x="1293.1875" y="1386.81625" type="line"/>
      <point x="1293.1875" y="781.4325" type="line"/>
      <point x="1946.99375" y="781.4325" type="line"/>
      <point x="1946.99375" y="713.39375" type="line"/>
      <point x="1290.6375" y="713.39375" type="line"/>
      <point x="1290.6375" y="69.18375" type="line"/>
      <point x="2017.54375" y="69.18375" type="line"/>
      <point x="2017.54375" y="0.0" type="line"/>
      <point x="1224.65625" y="0.0" type="line"/>
      <point x="1224.65625" y="153.19125" type="line"/>
      <point x="1018.21875" y="-28.5975"/>
      <point x="888.91875" y="-19.0"/>
    </contour>
    <contour>
      <point x="794.975" y="68.86625" type="curve" smooth="yes"/>
      <point x="877.10625" y="77.9825"/>
      <point x="1042.79375" y="85.15375"/>
      <point x="1224.65625" y="280.885" type="curve"/>
      <point x="1224.65625" y="1250.77" type="line"/>
      <point x="1147.08125" y="1343.25"/>
      <point x="1007.6" y="1396.25"/>
      <point x="854.3875" y="1414.96125" type="curve" smooth="yes"/>
      <point x="316.31875" y="1438.78875"/>
      <point x="181.5875" y="979.9525"/>
      <point x="181.5875" y="725.0" type="curve" smooth="yes"/>
      <point x="181.5875" y="421.77"/>
      <point x="336.8375" y="47.9525"/>
    </contour>
  </outline>
</glyph>
<glyph name="tbar" format="1">
  <advance width="624.375"/>
  <unicode hex="0167"/>
  <outline>
    <contour>
      <point x="-7.6625" y="735.47125" type="line"/>
      <point x="-7.6625" y="835.15" type="line"/>
      <point x="638.9125" y="835.15" type="line"/>
      <point x="638.9125" y="735.47125" type="line"/>
    </contour>
    <component base="t"/>
  </outline>
</glyph>
<glyph name="florin" format="1">
  <advance width="989.25"/>
  <unicode hex="0192"/>
  <outline>
    <contour>
      <point x="195.60625" y="-267.49125" type="curve" smooth="yes"/>
      <point x="135.00625" y="-267.49125"/>
      <point x="126.36875" y="-260.20125"/>
      <point x="97.275" y="-254.3175" type="curve"/>
      <point x="104.60625" y="-189.51" type="line"/>
      <point x="104.60625" y="-189.51"/>
      <point x="146.4875" y="-204.33625"/>
      <point x="160.9125" y="-204.33625" type="curve" smooth="yes"/>
      <point x="319.15" y="-204.33625"/>
      <point x="359.69375" y="-90.02875"/>
      <point x="364.39375" y="-65.10625" type="curve" smooth="yes"/>
      <point x="582.86875" y="1135.5375" type="line"/>
      <point x="401.05625" y="1135.5375" type="line"/>
      <point x="393.69375" y="1194.085" type="line"/>
      <point x="589.6875" y="1194.085" type="line"/>
      <point x="580.69375" y="1162.48" type="line" smooth="yes"/>
      <point x="607.69375" y="1389.67125"/>
      <point x="687.6" y="1502.79875"/>
      <point x="871.7" y="1502.79875" type="curve" smooth="yes"/>
      <point x="873.55625" y="1502.79875"/>
      <point x="969.25" y="1490.365"/>
      <point x="969.25" y="1490.365" type="curve"/>
      <point x="954.525" y="1424.58625" type="line"/>
      <point x="954.525" y="1424.58625"/>
      <point x="911.70625" y="1442.44125"/>
      <point x="860.70625" y="1442.44125" type="curve" smooth="yes"/>
      <point x="661.93125" y="1442.44125"/>
      <point x="656.65" y="1339.93125"/>
      <point x="647.4375" y="1272.70125" type="curve" smooth="yes"/>
      <point x="627.13125" y="1194.085" type="line"/>
      <point x="894.9375" y="1194.085" type="line"/>
      <point x="883.275" y="1135.5375" type="line"/>
      <point x="630.1" y="1135.5375" type="line"/>
      <point x="457.675" y="160.25" type="line" smooth="yes"/>
      <point x="425.7375" y="-32.385"/>
      <point x="481.99375" y="-267.49125"/>
    </contour>
  </outline>
</glyph>
<glyph name="caron" format="1">
  <advance width="699.0"/>
  <unicode hex="02C7"/>
  <outline>
    <contour>
      <point x="297.225" y="1242.01875" type="line"/>
      <point x="106.83125" y="1482.9275" type="line"/>
      <point x="136.65" y="1482.9275" type="line"/>
      <point x="340.5875" y="1247.505" type="line"/>
      <point x="553.91875" y="1482.9275" type="line"/>
      <point x="590.89375" y="1482.9275" type="line"/>
      <point x="400.79375" y="1242.01875" type="line"/>
    </contour>
  </outline>
</glyph>
<glyph name="breve" format="1">
  <advance width="446.83125"/>
  <unicode hex="02D8"/>
  <outline>
    <contour>
      <point x="225.13125" y="1262.4525" type="curve" smooth="yes"/>
      <point x="90.8875" y="1262.4525"/>
      <point x="46.84375" y="1330.365"/>
      <point x="35.11875" y="1456.0" type="curve"/>
      <point x="82.25" y="1456.0" type="line"/>
      <point x="85.13125" y="1371.91375"/>
      <point x="113.31875" y="1314.23125"/>
      <point x="225.13125" y="1314.23125" type="curve" smooth="yes"/>
      <point x="336.94375" y="1314.23125"/>
      <point x="350.89375" y="1383.71125"/>
      <point x="366.0125" y="1456.0" type="curve"/>
      <point x="411.7125" y="1456.0" type="line"/>
      <point x="402.83125" y="1337.33625"/>
      <point x="339.46875" y="1262.4525"/>
    </contour>
  </outline>
</glyph>
<glyph name="hungarumlaut" format="1">
  <advance width="969.0"/>
  <unicode hex="02DD"/>
  <outline>
    <contour>
      <point x="312.5625" y="1230.105" type="line"/>
      <point x="545.55" y="1437.955" type="line"/>
      <point x="591.7375" y="1437.955" type="line"/>
      <point x="354.025" y="1230.105" type="line"/>
    </contour>
    <contour>
      <point x="466.9" y="1230.105" type="line"/>
      <point x="641.3375" y="1437.955" type="line"/>
      <point x="663.7125" y="1437.955" type="line"/>
      <point x="502.85" y="1230.105" type="line"/>
    </contour>
  </outline>
</glyph>
<glyph name="endash" format="1">
  <advance width="1061.1125"/>
  <unicode hex="2013"/>
  <outline>
    <contour>
      <point x="-14.6875" y="530.39375" type="line"/>
      <point x="-14.6875" y="590.25875" type="line"/>
      <point x="1055.89375" y="590.25875" type="line"/>
      <point x="1055.89375" y="530.39375" type="line"/>
    </contour>
  </outline>
</glyph>
<glyph name="uni2015" format="1">
  <advance width="4094.8625"/>
  <unicode hex="2015"/>
  <outline>
    <contour>
      <point x="75.3375" y="530.39375" type="line"/>
      <point x="75.3375" y="608.43375" type="line"/>
      <point x="4019.525" y="608.43375" type="line"/>
      <point x="4019.525" y="530.39375" type="line"/>
    </contour>
  </outline>
</glyph>
<glyph name="quotedblleft" format="1">
  <advance width="1024.0"/>
  <unicode hex="201C"/>
  <outline>
    <contour>
      <point x="235.9625" y="914.65375" type="line"/>
      <point x="347.45625" y="1456.0" type="line"/>
      <point x="385.06875" y="1456.0" type="line"/>
      <point x="291.975" y="914.65375" type="line"/>
    </contour>
    <contour>
      <point x="447.06875" y="914.65375" type="line"/>
      <point x="569.74375" y="1456.0" type="line"/>
      <point x="605.5125" y="1456.0" type="line"/>
      <point x="513.41875" y="914.65375" type="line"/>
    </contour>
  </outline>
</glyph>
<glyph name="daggerdbl" format="1">
  <advance width="912.4375"/>
  <unicode hex="2021"/>
  <outline>
    <contour>
      <point x="429.24375" y="13.3075" type="line"/>
      <point x="429.24375" y="546.78875" type="line"/>
      <point x="90.51875" y="546.78875" type="line"/>
      <point x="90.51875" y="579.48" type="line"/>
      <point x="429.24375" y="579.48" type="line"/>
      <point x="429.24375" y="1023.01875" type="line"/>
      <point x="99.6375" y="1023.01875" type="line"/>
      <point x="99.6375" y="1057.88375" type="line"/>
      <point x="429.24375" y="1057.88375" type="line"/>
      <point x="429.24375" y="1456.0" type="line"/>
      <point x="458.65625" y="1456.0" type="line"/>
      <point x="458.65625" y="1057.88375" type="line"/>
      <point x="821.35" y="1057.88375" type="line"/>
      <point x="821.35" y="1023.01875" type="line"/>
      <point x="458.65625" y="1023.01875" type="line"/>
      <point x="458.65625" y="579.48" type="line"/>
      <point x="817.46875" y="579.48" type="line"/>
      <point x="817.46875" y="546.78875" type="line"/>
      <point x="461.5" y="546.78875" type="line"/>
      <point x="461.5" y="13.3075" type="line"/>
    </contour>
  </outline>
</glyph>
<glyph name="guilsinglleft" format="1">
  <advance width="608.36875"/>
  <unicode hex="2039"/>
  <outline>
    <contour>
      <point x="396.9375" y="185.74" type="line"/>
      <point x="138.0" y="541.0" type="line"/>
      <point x="400.09375" y="904.9125" type="line"/>
      <point x="489.58125" y="904.9125" type="line"/>
      <point x="222.28125" y="542.145" type="line"/>
      <point x="481.58125" y="185.74" type="line"/>
    </contour>
  </outline>
</glyph>
<glyph name="foursuperior" format="1">
  <advance width="897.0"/>
  <unicode hex="2074"/>
  <outline>
    <contour>
      <point x="172.4" y="579.505" type="line"/>
      <point x="172.4" y="761.78" type="line"/>
      <point x="-215.8" y="761.78" type="line"/>
      <point x="-215.8" y="831.025" type="line"/>
      <point x="147.65" y="1361.62" type="line"/>
      <point x="230.65" y="1361.62" type="line"/>
      <point x="230.65" y="842.445" type="line"/>
      <point x="330.725" y="842.445" type="line"/>
      <point x="353.475" y="761.78" type="line"/>
      <point x="226.1" y="761.78" type="line"/>
      <point x="226.1" y="579.505" type="line"/>
    </contour>
    <contour>
      <point x="-123.975" y="842.445" type="line"/>
      <point x="170.4" y="842.445" type="line"/>
      <point x="170.4" y="1247.435" type="line"/>
    </contour>
  </outline>
</glyph>
<glyph name="trademark" format="1">
  <advance width="1869.0"/>
  <unicode hex="2122"/>
  <outline>
    <contour>
      <point x="829.0625" y="755.07625" type="line"/>
      <point x="829.0625" y="1498.53875" type="line"/>
      <point x="903.85625" y="1498.53875" type="line"/>
      <point x="1225.58125" y="800.92375" type="line"/>
      <point x="1585.6875" y="1498.53875" type="line"/>
      <point x="1635.45625" y="1498.53875" type="line"/>
      <point x="1635.45625" y="755.07625" type="line"/>
      <point x="1613.84375" y="755.07625" type="line"/>
      <point x="1613.84375" y="1503.0275" type="line"/>
      <point x="1232.1" y="755.07625" type="line"/>
      <point x="1211.5125" y="755.07625" type="line"/>
      <point x="855.34375" y="1513.94125" type="line"/>
      <point x="855.34375" y="755.07625" type="line"/>
    </contour>
    <contour>
      <point x="362.54375" y="755.07625" type="line"/>
      <point x="362.54375" y="1476.355" type="line"/>
      <point x="65.60625" y="1476.355" type="line"/>
      <point x="65.60625" y="1498.53875" type="line"/>
      <point x="709.275" y="1498.53875" type="line"/>
      <point x="709.275" y="1476.355" type="line"/>
      <point x="398.1" y="1476.355" type="line"/>
      <point x="398.1" y="755.07625" type="line"/>
    </contour>
  </outline>
</glyph>
<glyph name="uni2206" format="1">
  <advance width="1321.5125"/>
  <unicode hex="2206"/>
  <outline>
    <contour>
      <point x="41.275" y="0.0" type="line"/>
      <point x="1252.9375" y="0.0" type="line"/>
      <point x="1252.9375" y="49.375" type="line"/>
      <point x="633.34375" y="1464.74125" type="line"/>
      <point x="661.86875" y="1464.74125" type="line"/>
      <point x="41.275" y="49.375" type="line"/>
    </contour>
    <contour>
      <point x="16.90625" y="3.645" type="line"/>
      <point x="-122.9875" y="-355.9125"/>
      <point x="812.19375" y="1790.15125"/>
      <point x="672.3" y="1428.9125" type="curve"/>
      <point x="521.775" y="1796.94875"/>
      <point x="1431.5" y="-361.565"/>
      <point x="1280.975" y="3.645" type="curve"/>
    </contour>
  </outline>
</glyph>
<glyph name="summation" format="1">
  <advance width="1056.19375"/>
  <unicode hex="2211"/>
  <outline>
    <contour>
      <point x="103.11875" y="-64.27" type="line"/>
      <point x="103.11875" y="-36.40375" type="line"/>
      <point x="615.11875" y="713.48125" type="line"/>
      <point x="120.0" y="1408.53875" type="line"/>
      <point x="120.0" y="1451.17375" type="line"/>
      <point x="980.8875" y="1451.17375" type="line"/>
      <point x="980.8875" y="1409.9325" type="line"/>
      <point x="186.56875" y="1409.9325" type="line"/>
      <point x="660.65625" y="728.27875" type="line"/>
      <point x="138.71875" y="-27.82625" type="line"/>
      <point x="1022.8875" y="-27.82625" type="line"/>
      <point x="1022.8875" y="-64.27" type="line"/>
    </contour>
  </outline>
</glyph>
<glyph name="minus" format="1">
  <advance width="867.06875"/>
  <unicode hex="2212"/>
  <outline>
    <contour>
      <point x="119.21875" y="737.02875" type="line"/>
      <point x="119.21875" y="800.865" type="line"/>
      <point x="747.28125" y="800.865" type="line"/>
      <point x="747.28125" y="737.02875" type="line"/>
    </contour>
  </outline>
</glyph>
<glyph name="radical" format="1">
  <advance width="1314.0"/>
  <unicode hex="221A"/>
  <outline>
    <contour>
      <point x="684.41875" y="-164.91375" type="line"/>
      <point x="318.54375" y="752.395" type="line"/>
      <point x="322.9375" y="753.54"/>
      <point x="132.0875" y="727.22125"/>
      <point x="132.0875" y="727.22125" type="curve"/>
      <point x="142.84375" y="762.08625" type="line"/>
      <point x="343.73125" y="803.4625" type="line"/>
      <point x="716.05625" y="-212.47875" type="line"/>
      <point x="1208.7125" y="1644.19125" type="line"/>
      <point x="1215.11875" y="1644.19125" type="line"/>
      <point x="730.975" y="-164.91375" type="line"/>
    </contour>
  </outline>
</glyph>
<glyph name="approxequal" format="1">
  <advance width="1351.0"/>
  <unicode hex="2248"/>
  <outline>
    <contour>
      <point x="216.55" y="299.5675" type="line"/>
      <point x="251.21875" y="395.59625"/>
      <point x="320.675" y="461.74125"/>
      <point x="459.0625" y="461.74125" type="curve" smooth="yes"/>
      <point x="544.54375" y="461.74125"/>
      <point x="603.54375" y="434.2775"/>
      <point x="689.9625" y="380.5375" type="curve" smooth="yes"/>
      <point x="813.14375" y="311.42125"/>
      <point x="874.4125" y="283.5375"/>
      <point x="951.29375" y="283.5375" type="curve" smooth="yes"/>
      <point x="1086.0875" y="283.5375"/>
      <point x="1173.69375" y="365.0"/>
      <point x="1192.66875" y="488.52" type="curve"/>
      <point x="1189.25625" y="491.5475" type="line"/>
      <point x="1147.1375" y="385.4025"/>
      <point x="1082.1125" y="323.86625"/>
      <point x="959.84375" y="323.86625" type="curve" smooth="yes"/>
      <point x="867.69375" y="323.86625"/>
      <point x="785.39375" y="362.72125"/>
      <point x="705.725" y="420.2875" type="curve" smooth="yes"/>
      <point x="630.84375" y="464.4325"/>
      <point x="555.90625" y="504.60625"/>
      <point x="468.3" y="504.60625" type="curve" smooth="yes"/>
      <point x="329.75625" y="504.60625"/>
      <point x="240.05625" y="428.14375"/>
      <point x="214.2375" y="296.9425" type="curve"/>
    </contour>
    <contour>
      <point x="211.15625" y="696.395" type="line"/>
      <point x="238.88125" y="804.3375"/>
      <point x="313.00625" y="864.22125"/>
      <point x="459.18125" y="864.22125" type="curve" smooth="yes"/>
      <point x="534.6" y="864.22125"/>
      <point x="602.6625" y="834.07625"/>
      <point x="685.9625" y="788.27875" type="curve" smooth="yes"/>
      <point x="798.08125" y="725.42375"/>
      <point x="876.63125" y="684.48125"/>
      <point x="947.45" y="684.48125" type="curve" smooth="yes"/>
      <point x="1085.6375" y="684.48125"/>
      <point x="1169.575" y="769.45125"/>
      <point x="1189.39375" y="890.0" type="curve"/>
      <point x="1185.4125" y="898.14375" type="line"/>
      <point x="1149.6875" y="787.1725"/>
      <point x="1080.1125" y="730.4625"/>
      <point x="956.56875" y="730.4625" type="curve" smooth="yes"/>
      <point x="876.3625" y="730.4625"/>
      <point x="813.0875" y="756.99875"/>
      <point x="707.5125" y="820.9125" type="curve" smooth="yes"/>
      <point x="617.7875" y="871.08625"/>
      <point x="542.5125" y="907.9125"/>
      <point x="465.025" y="907.9125" type="curve" smooth="yes"/>
      <point x="332.99375" y="907.9125"/>
      <point x="241.29375" y="831.45"/>
      <point x="210.9625" y="705.22" type="curve"/>
    </contour>
  </outline>
</glyph>
<glyph name="notequal" format="1">
  <advance width="1308.0625"/>
  <unicode hex="2260"/>
  <outline>
    <contour>
      <point x="403.0375" y="57.91375" type="line"/>
      <point x="372.6" y="61.17375" type="line"/>
      <point x="522.56875" y="352.79875" type="line"/>
      <point x="172.5125" y="352.79875" type="line"/>
      <point x="172.5125" y="395.66375" type="line"/>
      <point x="539.0625" y="395.66375" type="line"/>
      <point x="749.9875" y="790.395" type="line"/>
      <point x="172.5125" y="790.395" type="line"/>
      <point x="172.5125" y="834.26" type="line"/>
      <point x="763.75625" y="834.26" type="line"/>
      <point x="911.6625" y="1124.145" type="line"/>
      <point x="940.70625" y="1119.74" type="line"/>
      <point x="797.975" y="834.26" type="line"/>
      <point x="1135.55" y="834.26" type="line"/>
      <point x="1135.55" y="790.395" type="line"/>
      <point x="779.51875" y="790.395" type="line"/>
      <point x="571.28125" y="395.66375" type="line"/>
      <point x="1135.55" y="395.66375" type="line"/>
      <point x="1135.55" y="352.79875" type="line"/>
      <point x="554.94375" y="352.79875" type="line"/>
    </contour>
  </outline>
</glyph>
<glyph name="greaterequal" format="1">
  <advance width="1348.725"/>
  <unicode hex="2265"/>
  <outline>
    <contour>
      <point x="371.075" y="0.0" type="line"/>
      <point x="371.075" y="49.98125" type="line"/>
      <point x="1156.33125" y="49.98125" type="line"/>
      <point x="1156.33125" y="0.0" type="line"/>
    </contour>
    <contour>
      <point x="394.5875" y="992.56875" type="line"/>
      <point x="1095.125" y="539.3375" type="line"/>
      <point x="1095.125" y="479.8175" type="line"/>
      <point x="388.3125" y="125.98125" type="line"/>
      <point x="388.3125" y="196.04875" type="line"/>
      <point x="1054.7125" y="522.02" type="line"/>
      <point x="394.5875" y="922.21125" type="line"/>
    </contour>
  </outline>
</glyph>
<glyph name="fi" format="1">
  <advance width="1141.775"/>
  <unicode hex="FB01"/>
  <outline>
    <contour>
      <point x="236.25" y="0.0" type="line"/>
      <point x="236.25" y="977.395" type="line"/>
      <point x="65.45" y="977.395" type="line"/>
      <point x="65.45" y="1026.0" type="line"/>
      <point x="236.25" y="1026.0" type="line"/>
      <point x="236.25" y="1188.83" type="line" smooth="yes"/>
      <point x="236.25" y="1399.755"/>
      <point x="296.275" y="1501.16"/>
      <point x="561.15" y="1501.16" type="curve" smooth="yes"/>
      <point x="599.5" y="1501.16" type="line"/>
      <point x="609.7" y="1436.135" type="line"/>
      <point x="326.45" y="1436.135"/>
      <point x="309.725" y="1353.365"/>
      <point x="309.725" y="1231.295" type="curve" smooth="yes"/>
      <point x="309.725" y="1026.0" type="line"/>
      <point x="899.25" y="1026.0" type="line"/>
      <point x="899.25" y="977.395" type="line"/>
      <point x="309.725" y="977.395" type="line"/>
      <point x="309.725" y="0.0" type="line"/>
    </contour>
    <component base="i" xOffset="635.525"/>
  </outline>
</glyph>
<glyph name="euro" format="1">
  <advance width="1190.0"/>
  <outline>
    <contour>
      <point x="787.975" y="-21.0" type="curve" smooth="yes"/>
      <point x="462.25" y="-21.0"/>
      <point x="287.15" y="210.885"/>
      <point x="256.35" y="553.785" type="curve"/>
      <point x="121.35" y="553.785" type="line"/>
      <point x="133.7" y="674.61" type="line"/>
      <point x="249.725" y="674.61" type="line"/>
      <point x="259.927445652" y="696.262950311"/>
      <point x="253.233496732" y="714.728464054"/>
      <point x="247.45" y="781.71" type="curve"/>
      <point x="120.9" y="781.71" type="line"/>
      <point x="132.7" y="913.985" type="line"/>
      <point x="260.075" y="913.985" type="line"/>
      <point x="308.425" y="1241.595"/>
      <point x="502.7" y="1478.915"/>
      <point x="826.35" y="1478.915" type="curve" smooth="yes"/>
      <point x="949.425" y="1478.915"/>
      <point x="1043.4" y="1446.64"/>
      <point x="1114.925" y="1381.525" type="curve"/>
      <point x="1091.675" y="1165.045" type="line"/>
      <point x="1051.55" y="1318.99"/>
      <point x="958.025" y="1395.745"/>
      <point x="812.975" y="1395.745" type="curve" smooth="yes"/>
      <point x="538.05" y="1395.745"/>
      <point x="382.35" y="1168.785"/>
      <point x="340.175" y="913.985" type="curve"/>
      <point x="985.725" y="913.985" type="line"/>
      <point x="974.65" y="781.71" type="line"/>
      <point x="333.65" y="781.71" type="line"/>
      <point x="333.053645834" y="734.064317129"/>
      <point x="346.745389306" y="636.382275797"/>
      <point x="332.1" y="674.61" type="curve"/>
      <point x="949.175" y="674.61" type="line"/>
      <point x="936.55" y="553.785" type="line"/>
      <point x="343.55" y="553.785" type="line"/>
      <point x="374.55" y="263.245"/>
      <point x="501.125" y="59.735"/>
      <point x="806.525" y="59.735" type="curve" smooth="yes"/>
      <point x="930.75" y="59.735"/>
      <point x="1031.375" y="119.2"/>
      <point x="1095.475" y="243.84" type="curve"/>
      <point x="1093.2" y="62.405" type="line"/>
      <point x="1005.675" y="2.275"/>
      <point x="901.325" y="-21.0"/>
    </contour>
  </outline>
</glyph>
